<svg width="96" height="32" viewBox="0 0 96 32" fill="none" xmlns="http://www.w3.org/2000/svg">
<g clip-path="url(#clip0_842_2071)">
<path d="M96.0007 22.5355C96.0007 30.7155 90.0237 32 88.27 32H72.9125C72.2225 32 71.6621 31.4196 71.6621 30.7048V1.61239C71.6621 0.892199 72.2225 0.311749 72.9125 0.311749H84.3995C84.3995 0.311749 92.3896 -0.204207 92.3896 8.26607C92.3896 8.26607 92.6127 11.7219 90.5684 13.8986C90.4232 14.0544 90.2675 14.1996 90.1015 14.3393C89.9147 14.4952 89.7124 14.6403 89.4945 14.7746C89.4945 14.7746 89.7954 14.8552 90.2675 15.0434C90.2831 15.0487 90.3038 15.0595 90.3194 15.0649C92.0731 15.7743 96.0007 17.8865 96.0007 22.5355Z" fill="url(#paint0_linear_842_2071)"/>
<path d="M96.0007 22.5355C96.0007 30.7155 90.0237 32 88.27 32H72.9125C72.2225 32 71.6621 31.4196 71.6621 30.7048V1.61239C71.6621 0.892199 72.2225 0.311749 72.9125 0.311749H84.3995C84.3995 0.311749 92.3896 -0.204207 92.3896 8.26607C92.3896 8.26607 92.6127 11.7219 90.5684 13.8986C90.4232 14.0544 90.2675 14.1996 90.1015 14.3393C89.9147 14.4952 89.7124 14.6403 89.4945 14.7746C89.4945 14.7746 89.7954 14.8552 90.2675 15.0434C90.2831 15.0487 90.3038 15.0595 90.3194 15.0649C92.0731 15.7743 96.0007 17.8865 96.0007 22.5355Z" fill="url(#paint1_linear_842_2071)"/>
<path d="M52.3919 14.3554C52.5942 15.8012 52.8848 16.8922 52.1584 18.2197C51.2919 19.7944 49.227 20.3534 47.7535 19.2731C46.031 18.0155 46.1451 15.2207 45.9687 13.2805C45.8909 12.4098 45.9583 13.3342 45.9168 12.8237C45.8857 12.4582 45.8597 12.0873 45.8338 11.7165C45.7404 10.4696 45.6418 9.22809 45.5484 7.9812C45.3928 5.92275 45.2319 3.8643 45.0763 1.80585C44.8947 -0.59119 41.2577 -0.612688 41.4445 1.80585C41.6779 4.84784 41.9062 7.88446 42.1397 10.9264C42.3265 13.4095 42.2642 15.6883 42.9854 18.2036C44.1268 22.1915 48.0233 24.696 51.982 23.1428C56.1482 21.5089 56.4388 17.2093 55.8992 13.3557C55.5568 10.9694 52.0598 11.9799 52.3919 14.3554Z" fill="#1D91CC"/>
<path d="M42.5647 16.1991C42.7515 18.9885 39.6177 21.176 37.4801 18.9563C35.9236 17.3439 36.3491 14.6405 35.9652 12.5982C35.519 10.2226 32.0168 11.2277 32.463 13.5979C32.4838 13.7215 32.463 13.6462 32.4993 14.0493C32.5357 14.4793 32.5564 14.9146 32.5979 15.3446C32.6965 16.3174 32.8158 17.3009 33.0908 18.2415C33.7393 20.4665 35.1039 22.3637 37.2778 23.1484C41.745 24.7554 46.5286 21.1867 46.1966 16.1938C46.0357 13.8021 42.4039 13.7806 42.5647 16.1991Z" fill="#1D91CC"/>
<path d="M32.588 16.1664C32.754 19.0633 29.1948 21.2077 27.1662 18.8268C25.7549 17.1714 26.1544 14.6131 25.7757 12.6031C25.3295 10.2275 21.8274 11.2326 22.2736 13.6027C22.2891 13.678 22.3462 14.6723 22.3929 15.1936C22.4863 16.2201 22.6108 17.2628 22.9014 18.2517C23.5291 20.4015 24.8262 22.2611 26.8964 23.0834C31.3635 24.857 36.5052 21.2614 36.2147 16.1664C36.0849 13.7586 32.4531 13.7425 32.588 16.1664Z" fill="#1D91CC"/>
<path d="M22.4344 15.5863C21.817 18.9292 16.9088 19.6118 14.0759 19.7677C11.5337 19.9074 8.06784 20.2299 5.64489 19.1389C5.17275 18.9292 5.15718 18.5423 5.09492 18.1876C5.12605 18.3703 5.03785 17.1556 5.0586 16.8385C5.11049 16.0109 5.23501 14.9843 5.75384 14.3125C6.50096 13.3505 8.09379 12.9313 9.10033 13.6944C10.1328 14.4738 10.2833 16.5107 10.3663 17.6931C10.5323 19.988 10.5064 22.7129 9.31824 24.7445C7.73579 27.4479 4.52939 27.8671 1.74325 27.9262C-0.591509 27.9746 -0.596697 31.7368 1.74325 31.6884C8.1301 31.5594 13.1732 28.5927 13.9203 21.6326C14.5014 16.2151 12.8774 7.38474 5.63451 9.95377C1.95078 11.2598 0.721143 16.0592 1.72249 19.6441C3.08703 24.5349 10.8332 23.7556 14.4858 23.503C18.7403 23.2074 24.9663 21.7992 25.9313 16.5913C26.3775 14.2211 22.8754 13.2054 22.4344 15.5863Z" fill="#1D91CC"/>
<path d="M61.1765 11.8453C61.4671 13.807 62.9925 18.4237 60.7148 19.633C58.8574 20.6219 56.9584 19.0418 56.424 17.3112C55.9934 15.9192 56.0972 14.4573 55.8274 13.0384C55.376 10.6629 51.8738 11.6679 52.3252 14.0381C52.3304 14.0542 52.3564 14.4358 52.3927 14.8443C52.4394 15.4516 52.5016 16.0643 52.5898 16.6663C52.7818 17.9508 53.119 19.2299 53.7728 20.3532C55.35 23.062 58.8003 24.2282 61.6798 23.2608C66.8526 21.5248 65.2857 14.9357 64.6787 10.8456C64.3259 8.46471 60.8289 9.47512 61.1765 11.8453Z" fill="#1D91CC"/>
<path d="M60.9991 31.6831C63.3339 31.6831 63.3391 27.9209 60.9991 27.9209C58.6644 27.9209 58.6592 31.6831 60.9991 31.6831Z" fill="#1D91CC"/>
<path d="M46.8565 31.6349C49.5493 31.737 52.242 31.7585 54.9348 31.694C57.2695 31.6403 57.2747 27.8781 54.9348 27.9319C52.242 27.9963 49.5493 27.9748 46.8565 27.8727C44.5166 27.7814 44.5218 31.5435 46.8565 31.6349Z" fill="#1D91CC"/>
<path d="M24.7491 31.6347C27.665 31.7368 30.5808 31.7583 33.4967 31.6938C35.8314 31.6455 35.8366 27.8833 33.4967 27.9317C30.5808 27.9962 27.665 27.9747 24.7491 27.8725C22.4092 27.7866 22.4144 31.5487 24.7491 31.6347Z" fill="#1D91CC"/>
<path d="M13.1475 4.10626C17.1685 4.20837 21.1947 4.22987 25.2156 4.16538C27.5504 4.12776 27.5556 0.36558 25.2156 0.403201C21.1895 0.467696 17.1685 0.446198 13.1475 0.344082C10.8076 0.279587 10.8076 4.04176 13.1475 4.10626Z" fill="#1D91CC"/>
<path d="M90.2665 15.0432L87.0861 15.398L88.9123 21.0358L87.4025 21.1057L84.0301 16.1719C84.0301 16.1719 83.5528 15.4087 82.7019 15.3066C81.9807 15.226 80.0558 15.2851 79.4696 15.2958C79.345 15.3066 79.2205 15.2743 79.1064 15.2098C78.8677 15.0701 78.4941 14.796 78.4941 14.3929C78.4941 13.9146 78.9818 13.619 79.2257 13.5007C79.3035 13.4578 79.3917 13.4416 79.4799 13.4416L82.5826 13.3986C82.9976 13.3771 83.3816 13.1568 83.6202 12.8074L87.4492 7.19104L88.7204 7.00293L86.9719 13.1998C86.9719 13.1998 88.8864 13.5921 90.5674 13.8985C90.4222 14.0543 90.2665 14.1994 90.1005 14.3392C89.9137 14.495 89.7114 14.6401 89.4934 14.7745C89.4934 14.7745 89.7944 14.8551 90.2665 15.0432Z" fill="white"/>
</g>
<defs>
<linearGradient id="paint0_linear_842_2071" x1="71.664" y1="16.1536" x2="96.0026" y2="16.1536" gradientUnits="userSpaceOnUse">
<stop stop-color="#0086FF"/>
<stop offset="0.7728" stop-color="#5091FD"/>
<stop offset="1" stop-color="#6894FD"/>
</linearGradient>
<linearGradient id="paint1_linear_842_2071" x1="71.664" y1="16.1536" x2="96.0026" y2="16.1536" gradientUnits="userSpaceOnUse">
<stop stop-color="#1D91CC"/>
<stop offset="0.0001" stop-color="#1D91CC"/>
<stop offset="0.71875" stop-color="#50B2E4"/>
<stop offset="1" stop-color="#53A2FF"/>
</linearGradient>
<clipPath id="clip0_842_2071">
<rect width="96" height="32" fill="white"/>
</clipPath>
</defs>
</svg>
