<svg width="33" height="32" viewBox="0 0 33 32" fill="none" xmlns="http://www.w3.org/2000/svg">
<rect x="0.5" width="32" height="32" rx="8" fill="#E8F4FA"/>
<path d="M16.5 26.75C10.57 26.75 5.75 21.93 5.75 16C5.75 10.07 10.57 5.25 16.5 5.25C22.43 5.25 27.25 10.07 27.25 16C27.25 21.93 22.43 26.75 16.5 26.75ZM16.5 6.75C11.4 6.75 7.25 10.9 7.25 16C7.25 21.1 11.4 25.25 16.5 25.25C21.6 25.25 25.75 21.1 25.75 16C25.75 10.9 21.6 6.75 16.5 6.75Z" fill="#1D91CC"/>
<path d="M20.0302 18.0099C19.8402 18.0099 19.6502 17.9399 19.5002 17.7899L16.5002 14.7899L13.5002 17.7899C13.2102 18.0799 12.7302 18.0799 12.4402 17.7899C12.1502 17.4999 12.1502 17.0199 12.4402 16.7299L15.9702 13.1999C16.2602 12.9099 16.7402 12.9099 17.0302 13.1999L20.5602 16.7299C20.8502 17.0199 20.8502 17.4999 20.5602 17.7899C20.4102 17.9399 20.2202 18.0099 20.0302 18.0099Z" fill="#1D91CC"/>
</svg>
