<svg width="186" height="184" viewBox="0 0 186 184" fill="none" xmlns="http://www.w3.org/2000/svg">
<g opacity="0.78">
<g opacity="0.5">
<path d="M69.2239 94.2189C66.8981 92.0089 66.8219 88.3488 69.0537 86.0439L128.22 24.9392C130.452 22.6343 134.147 22.5574 136.473 24.7674L137.585 25.8246C139.784 27.9135 139.942 31.3609 138.884 34.1917C137.539 37.7874 137.045 42.8965 141.83 47.4432C146.615 51.9899 151.747 51.2883 155.318 49.8081C158.129 48.6428 161.613 48.6561 163.811 50.745L164.923 51.8022C167.249 54.0122 167.325 57.6722 165.094 59.9771L105.927 121.082C103.695 123.387 100 123.464 97.6747 121.254L69.2239 94.2189Z" fill="url(#paint0_linear_2028_35800)"/>
<path d="M114.213 42.4526L150.419 76.8565" stroke="white" stroke-width="2.9046" stroke-linecap="square" stroke-dasharray="8.71 8.71"/>
</g>
<g filter="url(#filter0_d_2028_35800)">
<path d="M60.6979 103.289C57.9037 101.713 56.9336 98.1789 58.531 95.3965L100.802 21.7661C102.399 18.9837 105.959 18.0061 108.753 19.5828L110.825 20.7517C113.456 22.2364 114.46 25.5315 114.193 28.5323C113.848 32.399 114.787 37.6013 120.928 41.0669C127.07 44.5325 132.061 42.6756 135.238 40.4075C137.704 38.6474 141.075 37.8209 143.706 39.3055L145.777 40.4745C148.572 42.0511 149.542 45.5849 147.944 48.3674L105.674 121.998C104.076 124.78 100.516 125.758 97.7222 124.181L60.6979 103.289Z" fill="url(#paint1_linear_2028_35800)"/>
<path d="M61.0594 102.66C58.6146 101.28 57.7657 98.188 59.1634 95.7533L101.434 22.123C102.832 19.6883 105.947 18.833 108.391 20.2125L110.463 21.3815C112.748 22.6709 113.721 25.6183 113.467 28.4713C113.288 30.4865 113.439 32.8812 114.459 35.238C115.483 37.6059 117.365 39.8899 120.567 41.6966C123.769 43.5034 126.71 43.9409 129.287 43.605C131.851 43.2707 134.006 42.177 135.662 40.9949C138.006 39.3214 141.059 38.6459 143.344 39.9353L145.416 41.1043C147.861 42.4838 148.71 45.5759 147.312 48.0105L105.041 121.641C103.644 124.076 100.529 124.931 98.0838 123.551L61.0594 102.66Z" stroke="#1D91CC" stroke-opacity="0.17" stroke-width="1.4523"/>
<path d="M91.3828 42.1621L135.055 66.6236" stroke="white" stroke-width="2.9046" stroke-linecap="square" stroke-dasharray="8.71 8.71"/>
</g>
</g>
<path d="M37.4316 86.0532L46.815 91.7213L35.537 110.081C33.9525 112.66 30.5674 113.483 27.9763 111.917C25.3851 110.352 24.5691 106.992 26.1537 104.413L37.4316 86.0532Z" fill="#1D91CC"/>
<g filter="url(#filter1_d_2028_35800)">
<path d="M86.4962 76.0443C77.2762 91.0153 57.5822 95.7785 42.5085 86.6832C27.4347 77.5879 22.6893 58.0784 31.9093 43.1074C41.1292 28.1364 60.8232 23.3732 75.897 32.4685C90.9708 41.5638 95.7162 61.0734 86.4962 76.0443Z" fill="white" fill-opacity="0.45" shape-rendering="crispEdges"/>
<path d="M86.4962 76.0443C77.2762 91.0153 57.5822 95.7785 42.5085 86.6832C27.4347 77.5879 22.6893 58.0784 31.9093 43.1074C41.1292 28.1364 60.8232 23.3732 75.897 32.4685C90.9708 41.5638 95.7162 61.0734 86.4962 76.0443Z" stroke="url(#paint2_linear_2028_35800)" stroke-width="8" shape-rendering="crispEdges"/>
</g>
<path d="M50.3203 50.5853L68.486 68.3898" stroke="#1D91CC" stroke-width="8" stroke-linecap="round"/>
<path d="M68.66 50.5547L50.6872 68.5504" stroke="#1D91CC" stroke-width="8" stroke-linecap="round"/>
<defs>
<filter id="filter0_d_2028_35800" x="5.47898" y="-27.6444" width="195.518" height="210.671" filterUnits="userSpaceOnUse" color-interpolation-filters="sRGB">
<feFlood flood-opacity="0" result="BackgroundImageFix"/>
<feColorMatrix in="SourceAlpha" type="matrix" values="0 0 0 0 0 0 0 0 0 0 0 0 0 0 0 0 0 0 127 0" result="hardAlpha"/>
<feOffset dy="5.80919"/>
<feGaussianBlur stdDeviation="26.1414"/>
<feComposite in2="hardAlpha" operator="out"/>
<feColorMatrix type="matrix" values="0 0 0 0 0 0 0 0 0 0 0 0 0 0 0 0 0 0 0.1 0"/>
<feBlend mode="normal" in2="BackgroundImageFix" result="effect1_dropShadow_2028_35800"/>
<feBlend mode="normal" in="SourceGraphic" in2="effect1_dropShadow_2028_35800" result="shape"/>
</filter>
<filter id="filter1_d_2028_35800" x="9.1875" y="13.8691" width="100.031" height="99.4136" filterUnits="userSpaceOnUse" color-interpolation-filters="sRGB">
<feFlood flood-opacity="0" result="BackgroundImageFix"/>
<feColorMatrix in="SourceAlpha" type="matrix" values="0 0 0 0 0 0 0 0 0 0 0 0 0 0 0 0 0 0 127 0" result="hardAlpha"/>
<feOffset dy="4"/>
<feGaussianBlur stdDeviation="7"/>
<feComposite in2="hardAlpha" operator="out"/>
<feColorMatrix type="matrix" values="0 0 0 0 0 0 0 0 0 0 0 0 0 0 0 0 0 0 0.1 0"/>
<feBlend mode="normal" in2="BackgroundImageFix" result="effect1_dropShadow_2028_35800"/>
<feBlend mode="normal" in="SourceGraphic" in2="effect1_dropShadow_2028_35800" result="shape"/>
</filter>
<linearGradient id="paint0_linear_2028_35800" x1="76.0497" y1="83.1199" x2="158.655" y2="98.0795" gradientUnits="userSpaceOnUse">
<stop stop-color="#1D91CC"/>
<stop offset="1" stop-color="#6CB7DD" stop-opacity="0.36"/>
</linearGradient>
<linearGradient id="paint1_linear_2028_35800" x1="124.625" y1="95.8698" x2="96.4001" y2="1.1652" gradientUnits="userSpaceOnUse">
<stop stop-color="#1D91CC"/>
<stop offset="1" stop-color="#D0DFE9"/>
</linearGradient>
<linearGradient id="paint2_linear_2028_35800" x1="60.9333" y1="60.8183" x2="87.8399" y2="-28.712" gradientUnits="userSpaceOnUse">
<stop stop-color="#1D91CC"/>
<stop offset="1" stop-color="white"/>
</linearGradient>
</defs>
</svg>
