<svg width="24" height="24" viewBox="0 0 24 24" fill="none" xmlns="http://www.w3.org/2000/svg">
<rect width="24" height="24" rx="12" fill="url(#paint0_linear_845_5147)"/>
<path fill-rule="evenodd" clip-rule="evenodd" d="M5.43299 11.8734C8.93124 10.3493 11.2639 9.34452 12.4311 8.85905C15.7637 7.47294 16.4561 7.23216 16.9075 7.22421C17.0067 7.22246 17.2287 7.24706 17.3725 7.36372C17.4939 7.46223 17.5273 7.5953 17.5433 7.6887C17.5592 7.78209 17.5791 7.99485 17.5633 8.1611C17.3827 10.0586 16.6013 14.6633 16.2038 16.7885C16.0356 17.6877 15.7043 17.9892 15.3837 18.0188C14.6868 18.0829 14.1577 17.5582 13.4827 17.1158C12.4266 16.4235 11.8299 15.9925 10.8047 15.3169C9.61994 14.5362 10.388 14.107 11.0632 13.4058C11.2399 13.2222 14.3103 10.4295 14.3697 10.1761C14.3771 10.1444 14.384 10.0263 14.3139 9.96397C14.2437 9.9016 14.1401 9.92293 14.0654 9.93989C13.9595 9.96393 12.2723 11.0791 9.00374 13.2855C8.52483 13.6143 8.09104 13.7746 7.70239 13.7662C7.27393 13.7569 6.44974 13.5239 5.83704 13.3247C5.08554 13.0804 4.48826 12.9513 4.54027 12.5364C4.56736 12.3203 4.86493 12.0993 5.43299 11.8734Z" fill="white"/>
<defs>
<linearGradient id="paint0_linear_845_5147" x1="12" y1="0" x2="12" y2="23.822" gradientUnits="userSpaceOnUse">
<stop stop-color="#2AABEE"/>
<stop offset="1" stop-color="#229ED9"/>
</linearGradient>
</defs>
</svg>
