<svg width="24" height="24" viewBox="0 0 24 24" fill="none" xmlns="http://www.w3.org/2000/svg">
<path d="M13.2492 11.944L0.560347 0.556712C0.331386 0.802113 0.187949 1.17744 0.187949 1.6829V22.3182C0.187949 22.8219 0.330399 23.1964 0.557983 23.4419L13.2492 12.0525V11.944Z" fill="#0C0C0C" stroke="#868686" stroke-width="0.3"/>
<path d="M17.7602 8.23161L13.6254 11.9437V12.0523L17.7569 15.766L22.8259 13.1813C23.5222 12.8253 23.8126 12.3868 23.8126 11.9985C23.8126 11.6105 23.5224 11.1731 22.8263 10.8195L22.8259 10.8193L17.7602 8.23161Z" fill="#0C0C0C" stroke="#868686" stroke-width="0.3"/>
<mask id="path-3-inside-1_2028_53640" fill="white">
<path d="M17.8274 15.9392L13.4376 11.998L0.482422 23.6302C0.964407 24.0851 1.75039 24.1399 2.64421 23.685L17.8274 15.9392Z"/>
</mask>
<path d="M17.8274 15.9392L13.4376 11.998L0.482422 23.6302C0.964407 24.0851 1.75039 24.1399 2.64421 23.685L17.8274 15.9392Z" fill="#0C0C0C"/>
<path d="M13.4376 11.998L13.1848 11.7231L13.4376 11.4961L13.6903 11.723L13.4376 11.998ZM0.482422 23.6302L0.222827 23.8989L-0.0690608 23.6234L0.229664 23.3552L0.482422 23.6302ZM2.64421 23.685L2.81662 24.0152L2.81629 24.0153L2.64421 23.685ZM17.5747 16.2142L13.1848 12.2731L13.6903 11.723L18.0802 15.6642L17.5747 16.2142ZM13.6903 12.273L0.73518 23.9052L0.229664 23.3552L13.1848 11.7231L13.6903 12.273ZM0.742017 23.3615C1.06461 23.6659 1.65872 23.7687 2.47213 23.3547L2.81629 24.0153C1.84207 24.5111 0.864209 24.5042 0.222827 23.8989L0.742017 23.3615ZM2.4718 23.3549L17.655 15.6091L17.9998 16.2693L2.81662 24.0152L2.4718 23.3549Z" fill="#868686" mask="url(#path-3-inside-1_2028_53640)"/>
<path d="M13.4376 11.7471L17.5007 8.09927L2.55887 0.476591C2.55872 0.476514 2.55856 0.476436 2.55841 0.476358C1.80891 0.0989711 1.18549 0.113545 0.77218 0.379705L13.4376 11.7471Z" fill="#0C0C0C" stroke="#868686" stroke-width="0.3"/>
</svg>
