<svg width="24" height="24" viewBox="0 0 24 24" fill="none" xmlns="http://www.w3.org/2000/svg">
<path d="M2.22215 11.7579L2.22967 11.7549L2.2371 11.7517C8.43924 9.04953 12.5707 7.26997 14.6353 6.41124C17.591 5.18187 19.3642 4.46537 20.4969 4.05434C21.6382 3.64018 22.0773 3.55681 22.3875 3.55134C22.4361 3.55049 22.5363 3.55669 22.6451 3.58268C22.757 3.60943 22.84 3.64806 22.888 3.68701C22.9572 3.74319 22.9899 3.8248 23.0129 3.95919C23.0364 4.09625 23.0662 4.42706 23.0436 4.66491C22.7259 8.00319 21.3448 16.1453 20.6397 19.9145C20.3504 21.461 19.8417 21.6701 19.6316 21.6895C19.1614 21.7327 18.726 21.5833 18.2311 21.2926C17.9823 21.1465 17.7297 20.9714 17.4546 20.776C17.4099 20.7442 17.3644 20.7118 17.3184 20.679C17.0867 20.5138 16.8395 20.3376 16.5816 20.1685C15.6493 19.5574 14.9199 19.0616 14.1946 18.5678L14.0983 18.5021C13.405 18.03 12.7071 17.5548 11.8352 16.9802C11.3362 16.6514 11.1112 16.4015 11.0205 16.2278C10.9487 16.0903 10.9514 15.9867 11.0106 15.8517C11.0848 15.6826 11.2438 15.4831 11.503 15.2194C11.6144 15.106 11.7348 14.99 11.8652 14.8642C11.882 14.848 11.8989 14.8318 11.9159 14.8153C12.0639 14.6726 12.2219 14.5191 12.3784 14.3565C12.4461 14.2862 12.7849 13.9714 13.2713 13.5193C13.8363 12.9942 14.6004 12.2841 15.3703 11.557C16.0777 10.8889 16.7823 10.2135 17.3179 9.67547C17.5851 9.40713 17.8152 9.16799 17.9839 8.9787C18.0676 8.88471 18.1422 8.79637 18.2002 8.71903C18.2291 8.68054 18.2587 8.63827 18.2845 8.59483C18.3054 8.55973 18.3456 8.48844 18.3667 8.3986C18.3885 8.30545 18.3961 8.17528 18.3766 8.04347C18.3571 7.91197 18.2985 7.69942 18.1131 7.53459C17.9295 7.37146 17.7179 7.33542 17.5676 7.33425C17.4273 7.33315 17.2983 7.36246 17.2337 7.37713L17.2298 7.37803C17.1464 7.39695 17.0682 7.43854 17.0424 7.45226C17.0411 7.453 17.0398 7.45365 17.0388 7.45422C16.9948 7.47747 16.9423 7.50745 16.8839 7.54206C16.766 7.61182 16.606 7.7111 16.4059 7.83825C16.0046 8.09316 15.4291 8.46848 14.6806 8.96318C13.1831 9.95303 10.9851 11.4262 8.08766 13.382L8.08765 13.382L8.08437 13.3843C7.28128 13.9357 6.61531 14.1605 6.07124 14.1487C5.75216 14.1418 5.24418 14.0473 4.65114 13.8986C4.06971 13.7528 3.44445 13.5649 2.90822 13.3906C2.73064 13.3328 2.56374 13.2803 2.40736 13.2311C1.94296 13.0849 1.57132 12.968 1.28805 12.8308C1.10484 12.742 1.01537 12.6697 0.975616 12.6208C0.951781 12.5915 0.945413 12.5748 0.950932 12.5308C0.950828 12.5316 0.950766 12.5321 0.950802 12.5321C0.951326 12.5322 0.972463 12.4464 1.18458 12.2889C1.39828 12.1302 1.73652 11.951 2.22215 11.7579Z" stroke="#080808"/>
</svg>
