<svg width="861" height="502" viewBox="0 0 861 502" fill="none" xmlns="http://www.w3.org/2000/svg">
<path d="M647.558 349.32L635.71 318.38L615.925 324.38L575.515 218.828L530.464 232.492L530.599 232.851L516.068 288.687L495.394 368.121L507.454 391.826L549.994 378.922L565.48 374.223L582.719 368.991L596.794 405.763L641.847 392.099L627.771 355.327L647.558 349.32ZM565.64 339.638L555.42 342.738L535.849 348.676L549.207 289.634L550.463 284.735L570.871 338.049L565.64 339.638Z" fill="#0077DB"/>
<path opacity="0.25" d="M627.625 354.847L627.112 355.003L627.304 355.505L640.98 391.233L613.556 380.791L567.765 233.919L567.303 232.436L566.813 233.91L549.989 284.578L549.984 284.591L549.981 284.605L542.407 312.504L516.628 288.522L531.084 232.976L531.124 232.822L531.121 232.814L575.215 219.442L615.457 324.56L615.623 324.995L616.069 324.86L635.408 318.994L646.899 348.997L627.625 354.847Z" fill="#0C0C0C" stroke="#0C0C0C"/>
<path opacity="0.25" d="M564.972 373.853L550.552 378.228L565.126 340.234C565.124 340.329 565.121 340.434 565.119 340.549C565.106 341.147 565.087 342.016 565.066 343.102C565.024 345.273 564.972 348.312 564.93 351.779C564.848 358.584 564.808 367.048 564.972 373.853Z" fill="#0C0C0C" stroke="#0C0C0C"/>
<path d="M565.64 339.637C565.64 339.637 561.769 335.31 555.012 335.81C548.255 336.31 544.485 338.567 544.258 344.832C544.031 351.098 545.71 382.676 544.168 395.207C542.625 407.739 552.222 408.991 552.772 399.719C553.324 390.446 549.246 361.374 552.269 356.612C555.294 351.851 553.453 361.875 556.625 365.134C559.799 368.391 563.176 362.627 559.799 354.858C556.419 347.088 565.64 339.637 565.64 339.637Z" fill="url(#paint0_linear_3913_82656)"/>
<path d="M153.075 292.853C151.918 292.853 151.061 292.797 150.691 292.659C150.26 292.498 148.943 292.009 137.446 273.741L139.513 272.711C143.807 279.532 150.318 289.461 151.696 290.731C152.947 290.911 159.823 290.485 165.915 289.94L166.154 292.039C162.318 292.381 156.432 292.853 153.075 292.853Z" fill="#F26647"/>
<path d="M194.752 301.711V302.322C194.752 302.322 194.124 313.918 184.373 313.417C184.348 313.417 184.325 313.412 184.3 313.412C178.27 313.064 170.805 310.559 165.801 308.699C162.655 307.527 160.475 306.61 160.233 306.646C159.599 306.736 167.619 336.437 167.512 338.129C167.5 338.356 167.441 338.598 167.352 338.847C166.784 340.455 164.8 342.384 163.609 342.544C163.484 342.56 163.23 342.353 162.869 341.952C159.243 337.939 144.89 314.631 144.498 307.02C144.078 298.657 148.828 293.62 155.268 292.66C160.019 291.954 173.911 293.657 180.87 294.601C183.342 294.938 184.934 295.176 184.934 295.176L194.752 301.711Z" fill="#0A2533"/>
<path opacity="0.25" d="M160.232 306.649L160.163 306.154C159.869 306.195 159.763 306.438 159.74 306.502C159.709 306.586 159.701 306.667 159.699 306.713C159.693 306.814 159.701 306.934 159.714 307.052C159.74 307.296 159.797 307.637 159.876 308.052C160.037 308.887 160.299 310.069 160.63 311.482C161.292 314.309 162.233 318.087 163.189 321.91C163.291 322.32 163.394 322.731 163.497 323.141C164.351 326.556 165.195 329.93 165.844 332.627C166.207 334.138 166.508 335.432 166.714 336.4C166.818 336.885 166.896 337.283 166.947 337.583C166.973 337.734 166.991 337.855 167.001 337.949C167.007 337.995 167.01 338.032 167.011 338.059C167.013 338.086 167.013 338.098 167.012 338.1C167.012 338.1 167.012 338.1 167.012 338.1L167.012 338.1L167.012 338.106C167.004 338.267 166.96 338.459 166.881 338.681L166.88 338.683C166.63 339.391 166.046 340.213 165.363 340.884C165.025 341.216 164.676 341.499 164.349 341.704C164.075 341.877 163.839 341.982 163.655 342.028C163.65 342.025 163.645 342.021 163.64 342.017C163.604 341.988 163.563 341.951 163.515 341.906C164.075 341.023 164.368 339.858 164.485 338.537C164.618 337.019 164.523 335.232 164.277 333.297C163.784 329.428 162.677 324.89 161.509 320.574C161.01 318.733 160.501 316.937 160.023 315.247C159.375 312.958 158.782 310.864 158.343 309.115C157.961 307.595 157.707 306.375 157.634 305.543C157.597 305.123 157.611 304.853 157.65 304.704C157.896 304.721 158.248 304.817 158.717 305.014C159.244 305.237 159.868 305.566 160.576 305.978C160.862 306.144 161.159 306.323 161.467 306.512C161.26 306.436 161.079 306.37 160.925 306.317C160.778 306.266 160.648 306.224 160.542 306.196C160.489 306.182 160.435 306.169 160.382 306.16C160.343 306.153 160.255 306.14 160.158 306.155L160.232 306.649ZM160.232 306.649C160.386 306.626 161.316 306.985 162.776 307.549C163.032 307.648 163.306 307.754 163.594 307.864L167.511 338.131C167.562 337.33 165.793 330.258 163.982 323.02C162.254 316.113 160.488 309.055 160.229 307.148C160.224 307.147 160.221 307.147 160.218 307.146C160.209 307.145 160.213 307.146 160.229 307.147C160.186 306.83 160.185 306.656 160.232 306.649Z" fill="#0C0C0C" stroke="#0C0C0C"/>
<path opacity="0.25" d="M184.751 295.657L194.253 301.98V302.308L194.252 302.323C194.25 302.343 194.248 302.373 194.245 302.413C194.238 302.493 194.227 302.612 194.21 302.764C194.175 303.069 194.114 303.507 194.011 304.032C193.806 305.084 193.433 306.473 192.77 307.841C192.107 309.209 191.161 310.535 189.819 311.489C188.733 312.261 187.368 312.804 185.641 312.914C186.918 311.347 187.122 309.116 187.004 306.713C186.916 304.911 185.951 302.542 184.809 300.303C183.872 298.467 182.787 296.666 181.883 295.248C182.636 295.353 183.271 295.443 183.759 295.513C184.112 295.563 184.388 295.604 184.575 295.631L184.751 295.657Z" fill="#0C0C0C" stroke="#0C0C0C"/>
<path d="M173.995 263.636C173.67 264.091 173.457 264.47 173.457 264.759C173.457 264.759 173.445 264.742 173.422 264.707C173.308 264.528 172.9 263.9 172.374 263.172C171.485 261.949 170.258 260.429 169.517 260.245C168.327 259.954 165.158 263.518 160.875 263.804C160.59 263.827 160.307 263.83 160.016 263.821C155.301 263.631 150.3 257.677 154.316 250.663C155.721 253.231 158.606 253.294 158.606 253.294C158.606 253.294 156.846 252.979 156.781 251.037C161.916 251.849 164.59 248.406 169.026 249.661C173.456 250.91 173.179 253.293 173.179 253.293C173.179 253.293 176.555 252.102 177.609 255.862C178.456 258.869 175.299 261.833 173.995 263.636Z" fill="#0A2533"/>
<path d="M173.425 264.709C173.124 265.657 172.548 266.692 171.772 267.529C170.832 268.554 169.587 269.302 168.182 269.271C165.185 269.207 162.205 265.626 160.879 263.806C165.162 263.521 168.331 259.958 169.521 260.247C170.262 260.431 171.487 261.95 172.378 263.174C172.902 263.902 173.312 264.53 173.425 264.709Z" fill="url(#paint1_linear_3913_82656)"/>
<path d="M177.753 265.069C177.753 265.069 175.502 269.647 174.656 268.644C174.199 268.102 172.884 267.744 171.771 267.526C172.548 266.689 173.122 265.654 173.424 264.705C173.448 264.741 173.459 264.758 173.459 264.758C173.459 264.468 173.672 264.088 173.997 263.635C175.632 264.733 177.753 265.069 177.753 265.069Z" fill="url(#paint2_linear_3913_82656)"/>
<path d="M193.594 303.732C190.004 303.263 180.295 293.865 180.295 289.82C180.295 289.25 180.224 288.617 180.106 287.928C179.36 283.719 176.629 277.549 175.491 273.188C174.171 268.115 176.071 266.216 176.071 266.216C180.491 259.451 190.493 272.861 196.197 283.614L196.203 283.619C198.122 287.242 199.391 290.606 199.509 292.859C199.917 300.472 197.184 304.201 193.594 303.732Z" fill="#5462AD"/>
<path opacity="0.25" d="M197.895 290.028C197.986 289.689 198.039 289.311 198.051 288.895C198.616 290.445 198.953 291.81 199.008 292.884L199.009 292.885C199.211 296.64 198.632 299.364 197.621 301.07C196.627 302.75 195.228 303.44 193.659 303.235C193.292 303.187 192.806 303.017 192.219 302.719C191.639 302.423 190.987 302.016 190.293 301.521C188.905 300.53 187.377 299.205 185.955 297.765C184.532 296.324 183.229 294.78 182.285 293.357C181.325 291.909 180.796 290.671 180.796 289.819C180.796 289.222 180.723 288.571 180.606 287.881L180.584 286.173L183.873 270.828C183.905 270.869 183.938 270.913 183.971 270.958C184.426 271.567 185.044 272.476 185.686 273.67C186.972 276.058 188.355 279.58 188.736 284.103C188.937 286.506 189.833 288.456 190.996 289.837C192.149 291.207 193.595 292.049 194.911 292.161C195.576 292.218 196.223 292.087 196.762 291.721C197.305 291.354 197.694 290.779 197.895 290.028Z" fill="#0C0C0C" stroke="#0C0C0C"/>
<path d="M186.061 283.434C185.967 283.507 185.801 283.565 185.582 283.619C183.917 284.029 179.066 283.967 177.045 283.613C176.744 283.561 176.5 283.498 176.347 283.434C175.015 282.87 176.347 281.489 175.927 279.047C175.506 276.6 174.45 269.46 178.532 267.266C182.803 264.971 185.918 273.656 186.061 277.981C186.204 282.307 186.98 282.744 186.061 283.434Z" fill="#5462AD"/>
<path d="M185.584 283.617C185.584 283.617 185.39 294.18 183.126 299.163C183.126 299.169 183.126 299.169 183.126 299.174C182.421 300.725 181.515 301.732 180.348 301.711C175.437 301.616 164.407 291.233 163.401 290.853C162.4 290.478 157.382 291.137 157.542 290.478C157.702 289.82 159.656 288.363 161.764 287.662C163.88 286.956 163.506 287.377 177.072 292.926C176.888 291.86 176.965 287.251 177.025 284.641C177.031 284.245 177.044 283.897 177.049 283.613C179.07 283.965 183.92 284.028 185.584 283.617Z" fill="url(#paint3_linear_3913_82656)"/>
<path d="M171.556 345.27C171.9 347.152 157.694 360.024 158.433 356.644C159.168 353.259 163.605 342.543 163.605 342.543C164.796 342.384 166.78 340.456 167.349 338.846C168.511 340.639 171.266 343.709 171.556 345.27Z" fill="#5462AD"/>
<path opacity="0.25" d="M184.375 305.737C184.375 305.737 161.571 301.925 157.066 303.769C152.562 305.611 165.308 337.691 165.308 337.691" stroke="white" stroke-width="0.4597" stroke-miterlimit="10"/>
<path opacity="0.25" d="M177.533 284.189C178.587 284.321 180.041 284.395 181.447 284.402C182.779 284.408 184.121 284.356 185.067 284.222C185.057 284.505 185.042 284.878 185.019 285.321C184.966 286.383 184.872 287.85 184.707 289.471C184.548 291.03 184.326 292.715 184.018 294.311C184.019 294.18 184.019 294.049 184.018 293.918C184.011 292.848 183.952 291.76 183.818 290.779C183.684 289.806 183.471 288.902 183.137 288.222C182.666 287.259 181.603 286.432 180.51 285.774C179.517 285.176 178.424 284.675 177.53 284.307C177.531 284.266 177.532 284.228 177.533 284.189Z" fill="#0C0C0C" stroke="#0C0C0C"/>
<path d="M551.661 227.725C551.2 229.307 550.429 231.343 549.232 234.068C547.526 237.976 544.949 243.302 541.152 250.727C541.058 254.498 539.707 278.55 539.34 284.087C539.292 284.762 539.263 285.163 539.251 285.216C539.198 285.458 538.22 285.922 537.155 286.16C536.147 286.391 535.07 286.422 534.606 285.874C533.652 284.746 527.213 262 526.9 256.645C526.581 251.287 526.266 252.509 533.652 231.179C531.857 231.928 520.223 231.648 520.223 231.648C520.223 231.648 522.356 257.772 522.367 257.961C522.367 257.988 522.349 258.051 522.308 258.14C522.173 258.499 521.745 259.297 521.284 259.697C521.076 259.88 520.862 259.986 520.666 259.933C520.554 259.908 520.281 259.685 519.885 259.312C517.652 257.201 511.527 250.104 508.209 243.486C504.304 235.686 503.35 230.232 507.048 224.785C510.745 219.333 529.463 218.916 529.463 218.916C530.649 219.21 533.373 219.501 536.068 220.071C536.862 220.235 537.656 220.43 538.403 220.651C542.503 221.863 550.316 223.403 551.999 222.539C552.372 223.702 552.455 225.063 551.661 227.725Z" fill="#6561AB"/>
<path d="M567.18 209.562C566.439 209.936 557.838 209.652 552.026 207.679C552.055 208.591 552.186 210.026 552.334 211.656C552.566 214.224 552.832 217.278 552.767 219.503C552.731 221.09 552.524 222.26 552.026 222.53C552.019 222.536 552.014 222.54 552.001 222.54C551.108 222.999 548.489 222.778 545.61 222.293C543.749 221.976 541.783 221.549 540.107 221.121C539.496 220.963 538.923 220.806 538.407 220.652C535.114 219.671 531.003 219.296 529.467 218.917C529.082 218.822 528.863 218.732 528.85 218.627C528.804 218.109 530.278 216.939 530.971 215.715C531.053 215.563 531.166 215.336 531.29 215.045C531.854 213.764 532.736 211.338 533.163 209.793C533.417 208.881 533.512 208.28 533.288 208.384C532.601 208.711 528.536 215.478 528.061 215.478C527.896 215.478 527.078 215.061 526.107 214.475C524.472 213.489 522.416 212.039 522.369 211.348C522.357 211.253 522.387 211.174 522.464 211.111C523.418 210.309 530.698 199.409 533.339 197.084C534.578 195.986 536.041 195.327 537.232 194.937C538.564 194.495 539.572 194.394 539.572 194.394C541.141 194.346 542.722 194.531 544.264 194.879C549.5 196.044 554.305 198.988 557.042 200.442C560.578 202.32 563.007 201.804 563.901 202.273C564.804 202.749 567.914 209.183 567.18 209.562Z" fill="#F26647"/>
<path d="M552.763 219.504C547.894 219.557 537.07 219.171 531.288 215.048C531.851 213.767 532.734 211.34 533.16 209.795C533.16 209.795 544.587 212.88 552.33 211.657C552.562 214.225 552.829 217.279 552.763 219.504Z" fill="#F69181"/>
<path opacity="0.25" d="M539.603 194.895L539.581 194.897C539.555 194.901 539.514 194.906 539.46 194.913C539.352 194.929 539.192 194.954 538.992 194.993C538.679 195.053 538.268 195.145 537.799 195.284C537.902 195.719 538.097 196.243 538.467 196.71C538.95 197.319 539.762 197.875 541.183 197.974L539.603 194.895ZM539.603 194.895C540.967 194.855 542.346 194.996 543.704 195.273C543.592 195.979 543.387 196.637 543.049 197.126C542.665 197.68 542.1 198.037 541.183 197.974L539.603 194.895Z" fill="#0C0C0C" stroke="#0C0C0C"/>
<path d="M542.945 190.952C542.945 190.952 542.418 189.027 541.358 188.036C540.499 189.281 537.188 189.919 534.634 190.083C533.425 190.162 532.383 190.136 531.856 190.014C530.061 183.807 535.658 181.085 538.775 180.896C541.885 180.706 544.687 182.768 543.841 185.917C546.636 188.369 542.945 190.952 542.945 190.952Z" fill="#321212"/>
<path d="M542.949 190.953C542.789 191.365 542.54 192.087 542.114 192.762H542.107C541.409 193.885 540.236 194.882 538.204 194.149C538.133 194.122 538.062 194.096 537.997 194.065C536.285 193.373 535.396 192.029 534.947 190.969C534.805 190.636 534.704 190.331 534.639 190.083C537.191 189.919 540.504 189.282 541.362 188.037C541.41 188.085 541.458 188.132 541.504 188.179C542.469 189.203 542.949 190.953 542.949 190.953Z" fill="url(#paint4_linear_3913_82656)"/>
<path d="M542.68 195.746C542.366 197.486 539.144 197.392 538.793 196.264C538.609 195.679 538.402 195.114 538.242 194.703C538.1 194.318 537.993 194.069 537.993 194.069V194.065C538.059 194.096 538.13 194.122 538.201 194.149C540.233 194.881 541.405 193.886 542.104 192.762H542.11C541.891 193.152 542.477 193.643 542.673 194.565C542.745 194.898 542.763 195.289 542.68 195.746Z" fill="url(#paint5_linear_3913_82656)"/>
<path d="M525.947 264.634C525.633 266.797 513.068 275.255 513.282 273.752C513.488 272.249 519.887 259.313 519.887 259.313C520.284 259.687 520.557 259.91 520.668 259.935C521.302 260.099 522.107 258.664 522.308 258.142C523.998 260.03 526.231 262.704 525.947 264.634Z" fill="#262166"/>
<path d="M534.605 303.484C531.649 297.841 534.605 285.875 534.605 285.875C535.553 287.003 539.143 285.685 539.249 285.216C539.262 285.163 539.29 284.762 539.338 284.087C539.338 284.087 539.812 289.82 540.375 294.677C540.938 299.534 537.562 309.121 534.605 303.484Z" fill="#262166"/>
<path opacity="0.25" d="M520.223 231.649C519.725 231.69 519.725 231.69 519.725 231.69L519.725 231.691L519.725 231.694L519.727 231.709L519.731 231.765L519.749 231.983L519.817 232.813L520.059 235.775L520.793 244.775C521.06 248.053 521.328 251.336 521.529 253.812C521.63 255.05 521.714 256.086 521.774 256.818L521.843 257.676L521.862 257.91C521.862 257.911 521.862 257.913 521.862 257.914C521.86 257.92 521.857 257.926 521.854 257.932L521.847 257.948L521.84 257.965C521.79 258.098 521.68 258.33 521.53 258.581C520.469 254.17 519.031 248.192 518.19 242.861C517.736 239.986 517.459 237.323 517.504 235.207C517.526 234.148 517.628 233.246 517.819 232.532C518.012 231.811 518.281 231.331 518.6 231.056C519.624 230.175 521.116 229.432 522.815 228.832C524.508 228.233 526.372 227.787 528.114 227.482C529.857 227.177 531.463 227.014 532.636 226.978C533.226 226.96 533.689 226.974 534 227.013C534.059 227.021 534.109 227.029 534.151 227.037C534.15 227.063 534.148 227.093 534.145 227.125C534.132 227.281 534.104 227.472 534.063 227.691C533.983 228.128 533.858 228.643 533.726 229.141C533.594 229.638 533.456 230.11 533.352 230.459C533.314 230.585 533.28 230.696 533.252 230.785C533.075 230.83 532.823 230.876 532.495 230.919C532.022 230.981 531.433 231.031 530.768 231.07C529.437 231.148 527.824 231.184 526.261 231.195C524.699 231.207 523.192 231.196 522.076 231.181C521.518 231.174 521.057 231.166 520.736 231.16C520.576 231.157 520.451 231.154 520.365 231.152L520.268 231.15L520.244 231.149L520.237 231.149L520.236 231.149L520.236 231.149L520.223 231.649ZM520.223 231.649L520.235 231.149L519.68 231.136L519.725 231.69L520.223 231.649ZM534.304 227.078C534.304 227.078 534.304 227.077 534.303 227.077L534.304 227.078Z" fill="#0C0C0C" stroke="#0C0C0C"/>
<path d="M525.285 218.835C525.113 219.151 525.025 219.415 525.079 219.59C525.332 220.465 523.982 231.428 524.474 232.557C524.965 233.686 525.25 237.255 524.965 239.513C524.68 241.77 519.404 243.147 519.404 241.206C519.404 239.26 520.038 234.688 520.25 232.932C520.463 231.182 518.492 218.493 519.019 216.737C519.363 215.592 520.683 213.652 521.56 212.445C522.027 211.796 522.371 211.353 522.371 211.353C522.45 212.454 527.633 215.482 528.064 215.482C528.063 215.481 525.978 217.559 525.285 218.835Z" fill="url(#paint6_linear_3913_82656)"/>
<path opacity="0.25" d="M541.045 221.867C542.633 222.246 544.387 222.606 546.029 222.868C547.377 223.084 548.661 223.237 549.722 223.28C550.252 223.301 550.736 223.296 551.15 223.254C551.325 223.237 551.495 223.212 551.656 223.178C551.855 224.076 551.844 225.222 551.295 227.191C549.161 226.972 546.847 226.112 545.224 224.661L545.223 224.66C544.114 223.673 542.64 222.73 541.045 221.867Z" fill="#0C0C0C" stroke="#0C0C0C"/>
<path opacity="0.25" d="M540.633 251.274C540.448 256.406 539.192 278.74 538.84 284.054C538.816 284.391 538.797 284.658 538.782 284.847C538.777 284.916 538.772 284.974 538.768 285.02C538.766 285.021 538.764 285.022 538.762 285.024C538.681 285.081 538.55 285.155 538.373 285.236C538.174 285.327 537.934 285.42 537.671 285.503C537.719 283.598 537.742 281.24 537.767 278.682C537.796 275.783 537.827 272.629 537.898 269.591C537.969 266.552 538.081 263.609 538.271 261.102C538.461 258.582 538.728 256.54 539.097 255.283L539.097 255.282C539.425 254.16 539.965 252.783 540.633 251.274Z" fill="#0C0C0C" stroke="#0C0C0C"/>
<path opacity="0.25" d="M533.286 208.386L533.071 207.934C532.945 207.994 532.838 208.093 532.766 208.165C532.682 208.249 532.591 208.353 532.497 208.467C532.308 208.696 532.083 208.999 531.839 209.342C531.353 210.023 530.767 210.897 530.192 211.754L530.177 211.777C529.595 212.645 529.026 213.494 528.573 214.125C528.346 214.442 528.155 214.694 528.011 214.864C527.993 214.885 527.976 214.904 527.961 214.921C527.869 214.88 527.752 214.824 527.612 214.753C527.391 214.639 527.124 214.494 526.83 214.324C526.833 214.32 526.836 214.316 526.839 214.312L526.84 214.311C527.444 213.518 528.142 212.677 528.873 211.797L528.95 211.705C529.705 210.795 530.49 209.848 531.219 208.89C532.663 206.993 533.942 204.989 534.319 203.082C534.362 202.883 534.405 202.714 534.447 202.573C534.482 202.729 534.514 202.92 534.541 203.146C534.605 203.69 534.631 204.391 534.596 205.217L534.596 205.217C534.533 206.745 534.453 209.878 535.067 213.085C535.54 215.557 536.439 218.14 538.135 220.056C536.565 219.619 534.858 219.31 533.356 219.067C532.863 218.987 532.397 218.915 531.964 218.848C530.938 218.69 530.107 218.562 529.585 218.433L529.585 218.433C529.546 218.423 529.511 218.414 529.478 218.405C529.602 218.231 529.783 218.021 530.006 217.768C530.037 217.732 530.069 217.696 530.102 217.659C530.525 217.181 531.053 216.583 531.404 215.963L531.405 215.961C531.774 215.303 532.538 213.344 533.116 211.627C533.407 210.763 533.66 209.932 533.797 209.33C533.864 209.04 533.913 208.762 533.911 208.552C533.911 208.472 533.906 208.278 533.789 208.112C533.714 208.006 533.59 207.907 533.42 207.88C533.267 207.856 533.142 207.9 533.068 207.935L533.286 208.386ZM533.286 208.386C533.387 208.337 533.423 208.435 533.408 208.64C533.408 208.641 533.408 208.642 533.408 208.643C533.404 208.709 533.394 208.785 533.38 208.871L526.535 214.731C527.31 215.18 527.919 215.479 528.059 215.479C528.297 215.479 529.439 213.776 530.605 212.037C531.475 210.739 532.358 209.422 532.888 208.778C532.905 208.677 532.912 208.604 532.911 208.559C532.911 208.555 532.911 208.552 532.911 208.549M533.286 208.386C533.214 208.42 533.106 208.524 532.968 208.683C532.928 208.625 532.915 208.573 532.911 208.549M532.911 208.549C532.911 208.54 532.91 208.535 532.91 208.536C532.91 208.536 532.91 208.541 532.911 208.549ZM528.13 214.987C528.13 214.987 528.129 214.986 528.125 214.985C528.128 214.986 528.13 214.987 528.13 214.987ZM534.267 202.061C534.267 202.061 534.269 202.063 534.273 202.068C534.269 202.064 534.267 202.062 534.267 202.061Z" fill="#0C0C0C" stroke="#0C0C0C"/>
<path opacity="0.25" d="M551.792 222.083L551.766 222.096C551.63 222.166 551.377 222.231 550.981 222.266C550.596 222.299 550.12 222.3 549.57 222.272C548.716 222.227 547.709 222.113 546.632 221.951C547.61 220.798 548.238 219.352 548.637 217.831C549.125 215.973 549.283 213.962 549.304 212.14C549.323 210.485 549.23 208.967 549.16 207.846C549.153 207.731 549.147 207.621 549.14 207.514C549.122 207.215 549.108 206.957 549.099 206.742C549.548 207.017 550.065 207.291 550.514 207.517C550.869 207.696 551.193 207.851 551.429 207.961C551.465 207.978 551.499 207.993 551.531 208.008C551.573 208.861 551.679 210.042 551.797 211.349L551.801 211.392C551.933 212.864 552.081 214.506 552.176 216.071C552.271 217.655 552.311 219.139 552.228 220.274C552.187 220.843 552.116 221.301 552.016 221.631C551.922 221.943 551.829 222.052 551.792 222.083ZM551.687 222.157C551.683 222.16 551.686 222.157 551.693 222.151L551.687 222.157Z" fill="#0C0C0C" stroke="#0C0C0C"/>
<path opacity="0.25" d="M522.309 212.257C522.474 212.447 522.677 212.643 522.9 212.837C523.428 213.297 524.117 213.793 524.806 214.246C525.496 214.7 526.198 215.12 526.758 215.427C526.913 215.513 527.058 215.59 527.191 215.658C527.008 215.851 526.789 216.086 526.558 216.345C526.246 216.693 525.901 217.095 525.587 217.497C525.488 217.198 525.341 216.883 525.173 216.572C524.899 216.063 524.542 215.512 524.161 214.969C523.502 214.032 522.752 213.097 522.189 212.42C522.231 212.363 522.271 212.309 522.309 212.257Z" fill="#0C0C0C" stroke="#0C0C0C"/>
<g opacity="0.25">
<mask id="path-35-inside-1_3913_82656" fill="white">
<path d="M541.504 188.179C540.237 190.674 536.511 190.963 534.947 190.969C534.805 190.636 534.704 190.331 534.639 190.083C537.191 189.919 540.504 189.282 541.362 188.037C541.41 188.085 541.458 188.132 541.504 188.179Z"/>
</mask>
<path d="M541.504 188.179C540.237 190.674 536.511 190.963 534.947 190.969C534.805 190.636 534.704 190.331 534.639 190.083C537.191 189.919 540.504 189.282 541.362 188.037C541.41 188.085 541.458 188.132 541.504 188.179Z" fill="#0C0C0C"/>
<path d="M541.504 188.179L542.396 188.632L542.722 187.99L542.216 187.477L541.504 188.179ZM534.947 190.969L534.027 191.361L534.287 191.971L534.95 191.969L534.947 190.969ZM534.639 190.083L534.575 189.086L533.36 189.164L533.672 190.34L534.639 190.083ZM541.362 188.037L542.073 187.334L541.224 186.476L540.539 187.469L541.362 188.037ZM540.612 187.727C540.159 188.62 539.22 189.199 538.05 189.55C536.895 189.895 535.681 189.966 534.943 189.969L534.95 191.969C535.777 191.966 537.207 191.89 538.624 191.466C540.024 191.046 541.583 190.233 542.396 188.632L540.612 187.727ZM535.867 190.577C535.744 190.289 535.659 190.029 535.605 189.827L533.672 190.34C533.75 190.633 533.866 190.984 534.027 191.361L535.867 190.577ZM534.703 191.081C536.025 190.996 537.559 190.789 538.894 190.432C539.561 190.253 540.206 190.03 540.759 189.752C541.296 189.481 541.834 189.114 542.186 188.605L540.539 187.469C540.461 187.582 540.263 187.762 539.859 187.966C539.469 188.162 538.965 188.342 538.378 188.499C537.203 188.813 535.805 189.006 534.575 189.086L534.703 191.081ZM540.652 188.741C540.727 188.817 540.73 188.818 540.792 188.882L542.216 187.477C542.186 187.447 542.093 187.354 542.073 187.334L540.652 188.741Z" fill="#0C0C0C" mask="url(#path-35-inside-1_3913_82656)"/>
</g>
<path opacity="0.25" d="M541.685 194.434C541.442 194.483 541.211 194.518 540.991 194.541C541.333 194.362 541.627 194.128 541.88 193.867C541.952 194.012 542.022 194.158 542.081 194.317C541.966 194.364 541.836 194.403 541.685 194.434Z" fill="#0C0C0C" stroke="#0C0C0C"/>
<path d="M559.523 0V234.069" stroke="#0A2533" stroke-width="0.9195" stroke-miterlimit="10"/>
<path d="M570.601 206.209C570.59 206.272 570.573 206.335 570.56 206.393C569.862 209.225 567.314 209.526 566.834 209.341C566.354 209.157 565.086 207.859 563.978 203.288C563.954 203.198 563.937 203.108 563.912 203.014C563.912 203.014 561.52 197.551 560.395 194.924C557.617 193.458 557.09 194.054 556.698 192.361C556.313 190.668 557.546 188.48 558.251 188.163C558.955 187.852 562.119 190.484 562.545 191.454C562.965 192.423 571.235 203.202 570.601 206.209Z" fill="url(#paint7_linear_3913_82656)"/>
<path opacity="0.25" d="M566.081 207.716C565.865 207.33 565.629 206.834 565.387 206.204C565.792 206.65 566.237 207.047 566.714 207.319L566.715 207.32C567.592 207.818 568.559 207.938 569.41 207.705C569.1 208.104 568.738 208.374 568.389 208.555C568.049 208.731 567.718 208.824 567.451 208.863C567.318 208.882 567.206 208.888 567.123 208.885C567.048 208.882 567.015 208.874 567.013 208.874C566.984 208.861 566.878 208.801 566.711 208.621C566.54 208.437 566.324 208.149 566.081 207.716Z" fill="#0C0C0C" stroke="#0C0C0C"/>
<path d="M477.291 354.441L470.502 323.576C465.479 300.747 455.793 284.094 441.445 273.609C427.09 263.13 409.361 259.729 388.254 263.41C367.146 267.091 352.177 276.15 343.356 290.583C334.529 305.022 332.634 323.695 337.674 346.604L344.487 377.586C349.493 400.336 359.167 416.952 373.521 427.43C379.581 431.855 386.251 435.018 393.532 436.913C403.489 439.513 414.592 439.739 426.835 437.608C433.18 436.506 438.975 434.908 444.205 432.819C456.312 427.989 465.447 420.538 471.608 410.455C480.436 396.017 482.326 377.343 477.291 354.441ZM434.911 395.869C432.589 402.198 427.678 406.016 420.177 407.324C412.411 408.678 406.101 406.737 401.233 401.496C397.915 397.926 395.078 392.626 392.725 385.597C392.725 385.591 392.725 385.586 392.725 385.586C392.72 385.575 392.72 385.564 392.713 385.549C391.623 382.29 390.64 378.656 389.763 374.654L380.233 331.323C377.999 319.942 377.993 311.156 380.208 304.965C382.424 298.775 387.329 295.014 394.917 293.696C400.705 292.683 405.698 293.554 409.892 296.296H409.899C411.326 297.235 412.664 298.384 413.909 299.756C418.808 305.15 422.599 313.947 425.276 326.134L434.5 368.063C437.097 380.27 437.234 389.535 434.911 395.869Z" fill="#FBA219"/>
<path opacity="0.25" d="M437.696 401.655L437.914 401.954C438.11 402.222 438.345 402.737 438.604 403.506C438.858 404.261 439.121 405.216 439.389 406.331C439.925 408.561 440.473 411.397 441.003 414.479C442.036 420.488 442.995 427.4 443.66 432.499C438.56 434.503 432.92 436.045 426.751 437.116C414.806 439.195 403.974 439.016 394.25 436.581C394.561 435.919 394.849 435.235 395.103 434.538C398.255 425.966 397.85 414.012 396.64 404.097C396.076 399.475 395.334 395.274 394.683 392.032C396.509 396.09 398.569 399.362 400.868 401.837C405.865 407.216 412.352 409.196 420.265 407.816L420.179 407.323L420.265 407.816C427.913 406.481 432.989 402.562 435.382 396.041L434.912 395.869L435.382 396.041C437.755 389.572 437.592 380.191 434.993 367.958L434.992 367.954L425.769 326.025C423.084 313.806 419.268 304.909 414.283 299.418L414.283 299.418C413.739 298.819 413.177 298.261 412.598 297.743C415.178 299.06 417.704 301.531 420.141 304.865C423.435 309.37 426.501 315.359 429.269 321.914C434.803 335.018 439.105 350.292 441.638 360.244C444.17 370.205 445.523 377.42 445.106 383.676C444.692 389.903 442.521 395.217 437.918 401.359L437.696 401.655Z" fill="#0C0C0C" stroke="#0C0C0C"/>
<path d="M396.031 393.698C396.031 393.698 397.003 395.959 402.105 397.211C407.209 398.464 411.995 391.437 415.374 393.698C418.752 395.959 424.159 405.329 428.916 403.902C433.674 402.475 435.081 425.031 432.829 427.537C430.577 430.043 428.957 409.786 423.011 410.392C417.063 410.995 421.568 426.283 418.189 429.041C414.81 431.798 416.219 422.274 412.559 420.519C408.899 418.766 416.501 497.209 410.869 498.462C405.238 499.716 401.578 494.953 403.831 478.163C406.083 461.372 403.266 403.478 399.888 400.47C396.512 397.462 396.723 396.898 396.031 393.698Z" fill="#6561AB"/>
<path d="M394.632 0V273.657" stroke="#0A2533" stroke-width="0.9195" stroke-miterlimit="10"/>
<path d="M467.715 167.833C467.715 167.833 463.229 156.885 463.598 156.038C463.968 155.193 468.895 153.595 469.257 154.064C469.616 154.534 472.731 163.04 472.203 163.65C471.674 164.261 467.715 167.833 467.715 167.833Z" fill="#262166"/>
<path d="M393.075 153.474C393.075 153.474 395.813 154.485 397.031 157.117C398.247 159.749 397.773 150.257 397.773 150.257L396.454 149.176L393.075 153.474Z" fill="url(#paint8_linear_3913_82656)"/>
<path d="M391.649 153.474C391.649 153.474 395.081 155.753 395.662 155.894C396.242 156.035 397.363 150.067 396.856 149.128C396.347 148.187 394.488 147.248 393.281 147.859C392.072 148.47 391.088 153.104 391.649 153.474Z" fill="url(#paint9_linear_3913_82656)"/>
<path d="M400.782 154.157C400.782 154.157 398.049 148.518 396.855 147.532C395.661 146.545 393.445 147.814 393.285 148.33C393.125 148.846 395.937 149.222 396.855 150.069C397.773 150.915 395.291 157.165 397.667 159.374C400.042 161.582 400.782 154.157 400.782 154.157Z" fill="url(#paint10_linear_3913_82656)"/>
<path d="M464.338 169.101C464.338 169.101 466.766 167.926 467.294 167.315C467.821 166.703 466.871 164.401 468.402 162.287C469.933 160.172 473.206 160.783 473.997 163.321C474.789 165.858 472.731 169.054 471.781 170.04C470.83 171.027 464.338 175.162 464.338 175.162" fill="url(#paint11_linear_3913_82656)"/>
<path d="M466.076 174.002C466.005 174.377 465.572 175.02 464.732 175.896C461.651 179.102 453.162 185.378 437.861 192.55C437.559 193.647 437.322 194.765 437.144 195.882C436.576 199.452 436.586 203.059 436.777 206.302C436.823 207.136 436.883 207.948 436.948 208.728C437.228 212.145 437.607 214.967 437.506 216.602C437.459 217.319 437.317 217.804 437.045 218.019C436.701 218.288 436.339 218.531 435.96 218.748C428.318 223.115 414.408 216.591 412.157 214.629C411.979 214.476 411.872 214.349 411.85 214.259C411.458 212.941 412.975 211.533 413.822 209.275C413.963 208.891 414.106 208.031 414.248 206.855C414.651 203.379 415.001 197.162 415.126 192.485C415.197 189.499 415.178 187.143 415.025 186.52C415.019 186.51 415.019 186.498 415.019 186.498C414.599 184.963 401.784 167.73 397.94 161.623C397.235 160.51 396.833 159.767 396.855 159.556C396.997 158.18 399.953 153.292 400.587 153.355C400.694 153.365 401.086 153.804 401.677 154.531C404.646 158.201 412.631 169.297 414.1 170.71C415.475 172.034 422.47 178.589 425.469 181.4C426.315 182.185 426.842 182.681 426.842 182.681C428.466 182.654 430.093 182.523 431.723 182.297C446.124 180.319 460.276 171.343 463.98 168.848C464.589 168.438 464.916 168.205 464.916 168.205C464.916 168.205 466.396 172.247 466.076 174.002Z" fill="#F47920"/>
<path d="M430.136 188.351C425.225 189.058 425.21 183.369 425.466 181.401C426.312 182.187 426.839 182.683 426.839 182.683C428.463 182.656 430.09 182.524 431.72 182.298C432.331 184.54 431.841 188.109 430.136 188.351Z" fill="#C54527"/>
<path d="M435.113 176.155C434.159 176.667 432.914 176.841 431.327 176.477C430.107 176.202 428.678 175.607 427.013 174.599C427.013 174.599 425.697 176.007 425.592 178.591C422.107 175.912 421.261 173.233 424.217 172.246C423.003 167.548 425.592 166.561 429.916 166.33C434.247 166.092 435.248 170.042 437.835 169.947C437.993 172.053 437.322 174.99 435.113 176.155Z" fill="#262166"/>
<path d="M435.114 176.154C435.066 176.534 434.995 176.971 434.894 177.441C434.313 180.189 432.797 184.023 430.511 183.812C430.392 183.807 430.269 183.785 430.137 183.749C428.082 183.174 426.844 181.397 426.198 180.089C425.772 179.241 425.594 178.591 425.594 178.591C425.629 177.775 425.782 177.073 425.979 176.498C426.399 175.258 427.015 174.6 427.015 174.6C428.68 175.607 430.108 176.203 431.329 176.477C432.915 176.84 434.16 176.665 435.114 176.154Z" fill="url(#paint12_linear_3913_82656)"/>
<path d="M430.506 185.43C430.482 186.427 430.328 187.207 429.582 187.254C428.071 187.349 426.063 185.593 426.17 183.684C426.205 183.036 426.218 182.346 426.218 181.713C426.218 181.074 426.205 180.494 426.193 180.088C426.839 181.396 428.077 183.173 430.132 183.747C430.264 183.784 430.388 183.806 430.506 183.811C430.5 184.366 430.524 184.924 430.506 185.43Z" fill="url(#paint13_linear_3913_82656)"/>
<path d="M466.074 174.002C466.003 174.377 465.57 175.019 464.73 175.895C464.77 173.654 464.22 170.253 463.978 168.849C464.587 168.438 464.914 168.206 464.914 168.206C464.914 168.206 466.394 172.247 466.074 174.002Z" fill="#C54527"/>
<path d="M401.677 154.534C399.427 156.248 398.329 159.983 397.94 161.627C397.235 160.515 396.833 159.772 396.855 159.56C396.997 158.184 399.953 153.296 400.587 153.359C400.695 153.369 401.086 153.806 401.677 154.534Z" fill="#C54527"/>
<path d="M436.949 208.729C431.915 209.377 422.442 209.953 414.249 206.857C414.652 203.381 415.002 197.164 415.127 192.486C419.184 194.015 427.945 196.736 437.146 195.882C436.429 200.371 436.63 204.922 436.949 208.729Z" fill="#FCAF17"/>
<path opacity="0.25" d="M433.403 219.254C431.978 219.642 430.414 219.772 428.788 219.708C426.228 219.609 423.551 219.03 421.102 218.262C418.655 217.494 416.451 216.543 414.842 215.709C414.037 215.291 413.388 214.907 412.936 214.595C412.709 214.438 412.541 214.306 412.429 214.202C412.374 214.151 412.339 214.113 412.321 214.089C412.32 214.088 412.32 214.088 412.319 214.087C412.206 213.656 412.375 213.154 412.809 212.36C412.903 212.188 413.007 212.005 413.118 211.811C413.497 211.148 413.948 210.359 414.288 209.451L414.289 209.449C414.455 208.999 414.603 208.075 414.743 206.915L414.743 206.913C415.149 203.416 415.499 197.182 415.624 192.499L415.624 192.497C415.645 191.602 415.658 190.761 415.663 190.006C416.641 193.087 418.041 197.887 418.921 202.601L418.921 202.602C419.201 204.096 419.416 205.439 419.612 206.66C419.673 207.046 419.733 207.419 419.793 207.781C420.038 209.283 420.277 210.599 420.609 211.753C421.284 214.095 422.355 215.787 424.651 217.132L424.652 217.132C425.989 217.915 427.843 218.494 429.833 218.853C430.988 219.062 432.201 219.198 433.403 219.254ZM412.31 214.073C412.31 214.073 412.31 214.074 412.311 214.075C412.31 214.074 412.31 214.073 412.31 214.073Z" fill="#0C0C0C" stroke="#0C0C0C"/>
<path d="M454.78 240.45C454.78 243.708 441.546 261.765 438.805 265.471C438.491 265.899 438.313 266.137 438.313 266.137C438.313 266.137 436.607 265.962 435.202 265.54C434.225 265.239 433.39 264.828 433.39 264.259C433.39 264.142 433.415 263.963 433.456 263.726C433.924 261.21 436.832 252.108 440.565 240.074C438.599 237.944 424.802 229.797 424.802 229.797C424.802 229.797 424.796 229.807 424.789 229.828C424.192 231.056 405.04 270.481 402.865 274.157C402.788 274.289 402.733 274.373 402.699 274.411C401.715 275.539 397.633 275.661 397.35 273.282C397.35 273.277 397.35 273.277 397.35 273.271C396.177 263.306 405.832 233.245 410.329 219.952C411.135 217.568 411.774 215.722 412.159 214.63C414.41 216.592 428.32 223.115 435.962 218.749C436.341 218.533 436.703 218.291 437.047 218.021C437.319 217.805 437.461 217.32 437.509 216.603C437.65 216.74 437.8 216.888 437.947 217.046C443.276 222.472 454.78 237.311 454.78 240.45Z" fill="#9DC2E7"/>
<path d="M404.213 279.673C403.686 282.02 389.746 288.976 391.015 284.767C392.046 281.355 395.919 275.402 397.347 273.271C397.347 273.277 397.347 273.277 397.347 273.282C397.632 275.661 401.714 275.54 402.696 274.411C402.731 274.374 402.785 274.29 402.862 274.157C403.573 275.972 404.557 278.155 404.213 279.673Z" fill="#262166"/>
<path d="M443.383 277.604C442.322 278.075 428.602 273.375 428.916 271.777C429.236 270.18 433.453 263.725 433.453 263.725C433.412 263.963 433.388 264.141 433.388 264.258C433.388 265.634 438.31 266.136 438.31 266.136C438.31 266.136 438.488 265.899 438.802 265.471C439.414 270.349 444.373 277.163 443.383 277.604Z" fill="#262166"/>
<g opacity="0.25">
<path d="M423.003 228.451C423.003 228.451 407.799 255.029 402.098 273.271L423.003 228.451Z" fill="#0C0C0C"/>
<path d="M423.003 228.451C423.003 228.451 407.799 255.029 402.098 273.271" stroke="#0C0C0C" stroke-width="0.4597" stroke-miterlimit="10"/>
</g>
<g opacity="0.25">
<path d="M426.595 228.451C426.595 228.451 443.486 238.319 444.121 239.917C444.754 241.515 435.358 263.726 435.358 263.726" fill="#0C0C0C"/>
<path d="M426.595 228.451C426.595 228.451 443.486 238.319 444.121 239.917C444.754 241.515 435.358 263.726 435.358 263.726" stroke="#0C0C0C" stroke-width="0.4597" stroke-miterlimit="10"/>
</g>
<path opacity="0.25" d="M411.033 219.42C411.592 217.771 412.059 216.417 412.401 215.44C413.122 215.933 414.214 216.542 415.537 217.165C417.299 217.995 419.514 218.868 421.9 219.541C426.576 220.861 432.058 221.456 436.054 219.267C434.699 220.547 432.619 221.128 430.211 221.273C426.673 221.487 422.662 220.735 419.916 220.101L419.916 220.101C416.939 219.415 413.584 219.333 411.033 219.42Z" fill="#0C0C0C" stroke="#0C0C0C"/>
<path opacity="0.25" d="M425.656 229.723C425.566 229.669 425.485 229.621 425.415 229.579C425.43 229.538 425.447 229.494 425.465 229.448C425.587 229.136 425.761 228.721 425.972 228.3C426.184 227.877 426.425 227.466 426.677 227.153C426.92 226.852 427.119 226.709 427.256 226.665C427.287 226.673 427.335 226.687 427.403 226.714C427.551 226.772 427.753 226.869 428.007 227.008C428.512 227.285 429.18 227.703 429.964 228.226C431.528 229.27 433.518 230.714 435.524 232.242C437.529 233.769 439.543 235.375 441.154 236.741C441.96 237.425 442.662 238.046 443.21 238.565C443.768 239.093 444.139 239.491 444.309 239.735L444.31 239.736C444.317 239.747 444.354 239.816 444.358 240.008C444.362 240.191 444.335 240.437 444.27 240.75C444.141 241.375 443.876 242.192 443.504 243.166C442.768 245.093 441.647 247.553 440.439 250.202L440.406 250.274C439.189 252.942 437.891 255.792 436.837 258.44C435.893 260.81 435.13 263.051 434.802 264.873C434.565 264.78 434.361 264.682 434.201 264.58C433.906 264.391 433.892 264.277 433.892 264.26C433.892 264.193 433.908 264.055 433.95 263.815C434.178 262.591 435.011 259.721 436.266 255.617C437.051 253.048 437.997 250.012 439.054 246.619C439.682 244.605 440.348 242.466 441.044 240.224L441.129 239.948L440.934 239.736C440.395 239.153 439.111 238.211 437.554 237.157C435.977 236.089 434.062 234.867 432.212 233.714C430.362 232.56 428.574 231.474 427.248 230.676C426.585 230.277 426.038 229.95 425.656 229.723ZM427.233 226.661C427.231 226.661 427.23 226.66 427.23 226.66L427.233 226.661Z" fill="#0C0C0C" stroke="#0C0C0C"/>
<path opacity="0.25" d="M430.266 176.702C430.593 176.809 430.91 176.896 431.216 176.965C432.474 177.253 433.56 177.228 434.48 176.953C434.472 176.996 434.464 177.039 434.455 177.083C432.986 177.651 431.518 177.299 430.266 176.702Z" fill="#0C0C0C" stroke="#0C0C0C"/>
<path opacity="0.25" d="M430.017 184.768C428.804 184.324 427.925 183.422 427.34 182.603C428.028 183.308 428.905 183.922 430.003 184.229L430.003 184.229C430.005 184.23 430.008 184.231 430.011 184.231C430.011 184.338 430.013 184.442 430.014 184.544C430.015 184.62 430.016 184.694 430.017 184.768Z" fill="#0C0C0C" stroke="#0C0C0C"/>
<path opacity="0.25" d="M436.549 196.49C436.506 196.587 436.462 196.687 436.417 196.789L436.549 196.49ZM436.549 196.49C436.329 198.066 436.217 199.643 436.177 201.185C436.163 201.081 436.149 200.977 436.136 200.874C435.932 199.197 435.982 197.781 436.417 196.789L436.549 196.49Z" fill="#0C0C0C" stroke="#0C0C0C"/>
<path d="M318.623 231.845L273.044 224.873L272.973 225.237L172.319 326.118L170.24 351.336L184.677 353.546L209.665 357.369L243.205 362.501L246.393 362.986L243.994 375.426L242.881 381.18L239.213 400.191L268.88 404.731L284.793 407.163L291.972 369.958L311.994 373.016L318.036 341.707L298.014 338.649L318.623 231.845ZM261.724 283.541L252.429 331.677L241.31 329.973L216.991 326.257L230.457 311.95L233.537 308.675L259.212 281.396L262.843 277.736L261.724 283.541Z" fill="#0077DB"/>
<path opacity="0.25" d="M243.208 362.5L209.667 357.368C213.618 345.751 218.548 329.74 216.995 326.255L241.314 329.972C242.871 332.283 244.103 335.462 244.436 339.824C245.027 347.545 243.735 355.429 243.208 362.5Z" fill="#0077DB"/>
<path d="M218.444 326.48C218.444 326.48 222.1 321.963 230.335 323.374C238.571 324.785 239.205 333.808 235.615 343.77C232.025 353.732 231.181 388.505 232.869 399.783C234.559 411.061 233.503 416.325 229.492 416.7C225.48 417.076 223.578 403.166 225.902 393.393C228.225 383.619 228.014 374.596 224.212 376.1C220.411 377.605 223.578 381.364 221.678 384.746C219.777 388.129 214.077 386.062 214.288 379.671C214.499 373.279 225.979 331.745 218.444 326.48Z" fill="#9DC2E7"/>
<path opacity="0.25" d="M298.014 338.649L318.037 341.707L311.995 373.016L291.972 369.958L284.792 407.163L268.88 404.73L296.848 249.385L318.623 231.845L298.014 338.649Z" fill="#0077DB"/>
<path d="M284.394 0V242.128" stroke="#0A2533" stroke-width="0.9195" stroke-miterlimit="10"/>
<path d="M361.032 193.854C365.58 193.854 369.267 190.571 369.267 186.523C369.267 182.474 365.58 179.192 361.032 179.192C356.484 179.192 352.797 182.474 352.797 186.523C352.797 190.571 356.484 193.854 361.032 193.854Z" fill="#F47920"/>
<path d="M647.554 287.014C652.103 287.014 655.789 283.732 655.789 279.683C655.789 275.635 652.103 272.353 647.554 272.353C643.006 272.353 639.319 275.635 639.319 279.683C639.319 283.732 643.006 287.014 647.554 287.014Z" fill="#6561AB"/>
<path d="M216.989 233.49C221.537 233.49 225.224 230.208 225.224 226.159C225.224 222.11 221.537 218.828 216.989 218.828C212.441 218.828 208.754 222.11 208.754 226.159C208.754 230.208 212.441 233.49 216.989 233.49Z" fill="#9DC2E7"/>
<path d="M352.799 457.675C357.347 457.675 361.034 454.393 361.034 450.344C361.034 446.295 357.347 443.013 352.799 443.013C348.25 443.013 344.563 446.295 344.563 450.344C344.563 454.393 348.25 457.675 352.799 457.675Z" fill="#F26647"/>
<path d="M600.475 211.417C602.229 211.417 603.651 210.151 603.651 208.59C603.651 207.028 602.229 205.762 600.475 205.762C598.721 205.762 597.299 207.028 597.299 208.59C597.299 210.151 598.721 211.417 600.475 211.417Z" fill="#F47920"/>
<path d="M357.857 255.445C359.611 255.445 361.033 254.179 361.033 252.617C361.033 251.055 359.611 249.79 357.857 249.79C356.103 249.79 354.681 251.055 354.681 252.617C354.681 254.179 356.103 255.445 357.857 255.445Z" fill="#9DC2E7"/>
<path d="M262.84 217.162C264.595 217.162 266.017 215.896 266.017 214.334C266.017 212.773 264.595 211.507 262.84 211.507C261.086 211.507 259.664 212.773 259.664 214.334C259.664 215.896 261.086 217.162 262.84 217.162Z" fill="#6561AB"/>
<path d="M692.543 59.3776C692.543 59.3776 679.85 48.0997 655.792 52.6111C631.732 57.1225 614.822 90.9562 597.306 98.474C579.788 105.993 545.254 128.194 542.673 147.168C576.411 122.158 589.08 133.06 611.039 130.053C632.999 127.045 634.688 104.113 666.362 104.865C698.034 105.617 731.818 140.65 763.491 121.066C795.163 101.483 832.326 78.1745 802.342 59.0025C772.357 39.8306 711.547 69.1517 692.543 59.3776Z" fill="url(#paint14_linear_3913_82656)"/>
<path d="M178.612 135.602C178.612 135.602 175.308 151.293 193.06 166.437C210.811 181.58 251.736 174.932 268.588 183.569C285.441 192.206 325.512 205.076 344.57 196.273C302.343 185.574 305.312 170.113 290.138 155.664C274.965 141.217 252.739 152.907 235.576 129.2C218.412 105.491 231.858 60.8991 195.831 48.6588C159.802 36.4186 117.222 22.2421 116.344 55.0961C115.467 87.9502 176.963 116.12 178.612 135.602Z" fill="url(#paint15_linear_3913_82656)"/>
<path d="M791.784 225.557C791.784 225.557 740.264 275.876 729.283 334.874C718.304 393.873 665.491 390.113 647.556 417.932C629.62 445.75 586.876 448.006 567.285 459.284C547.694 470.562 503.06 451.014 495.393 459.284C487.728 467.555 535.428 480.337 597.305 481.089C659.183 481.84 671.005 438.985 725.905 432.97C780.805 426.954 835.703 405.902 855.129 326.204C874.556 246.507 841.616 203.856 791.784 225.557Z" fill="url(#paint16_linear_3913_82656)"/>
<path d="M48.216 245.822C48.216 245.822 99.7359 296.142 110.717 355.139C121.697 414.137 174.509 410.377 192.444 438.196C210.379 466.015 253.124 468.271 272.715 479.549C292.306 490.827 336.94 471.279 344.607 479.549C352.273 487.819 304.572 500.601 242.695 501.353C180.818 502.105 168.995 459.248 114.095 453.234C59.197 447.219 4.29593 426.167 -15.1289 346.469C-34.5563 266.772 -1.61591 224.12 48.216 245.822Z" fill="url(#paint17_linear_3913_82656)"/>
<defs>
<linearGradient id="paint0_linear_3913_82656" x1="550.543" y1="308.108" x2="558.581" y2="452.579" gradientUnits="userSpaceOnUse">
<stop stop-color="#FCAF17"/>
<stop offset="1" stop-color="#F47920"/>
</linearGradient>
<linearGradient id="paint1_linear_3913_82656" x1="166.581" y1="269.047" x2="167.503" y2="259.249" gradientUnits="userSpaceOnUse">
<stop stop-color="#FBC4AF"/>
<stop offset="1" stop-color="#EA8B69"/>
</linearGradient>
<linearGradient id="paint2_linear_3913_82656" x1="181.213" y1="265.775" x2="171.091" y2="266.604" gradientUnits="userSpaceOnUse">
<stop stop-color="#FBC4AF"/>
<stop offset="1" stop-color="#EA8B69"/>
</linearGradient>
<linearGradient id="paint3_linear_3913_82656" x1="167.95" y1="302.603" x2="175.424" y2="272.453" gradientUnits="userSpaceOnUse">
<stop stop-color="#FBC4AF"/>
<stop offset="1" stop-color="#EA8B69"/>
</linearGradient>
<linearGradient id="paint4_linear_3913_82656" x1="538.636" y1="193.717" x2="538.971" y2="185.115" gradientUnits="userSpaceOnUse">
<stop stop-color="#FBC4AF"/>
<stop offset="1" stop-color="#EA8B69"/>
</linearGradient>
<linearGradient id="paint5_linear_3913_82656" x1="540.509" y1="197.374" x2="540.258" y2="191.263" gradientUnits="userSpaceOnUse">
<stop stop-color="#FBC4AF"/>
<stop offset="1" stop-color="#EA8B69"/>
</linearGradient>
<linearGradient id="paint6_linear_3913_82656" x1="519.334" y1="243.487" x2="525.387" y2="199.291" gradientUnits="userSpaceOnUse">
<stop stop-color="#FBC4AF"/>
<stop offset="1" stop-color="#EA8B69"/>
</linearGradient>
<linearGradient id="paint7_linear_3913_82656" x1="561.853" y1="190.434" x2="566.572" y2="218.391" gradientUnits="userSpaceOnUse">
<stop stop-color="#FBC4AF"/>
<stop offset="1" stop-color="#EA8B69"/>
</linearGradient>
<linearGradient id="paint8_linear_3913_82656" x1="394.169" y1="149.49" x2="397.213" y2="156.756" gradientUnits="userSpaceOnUse">
<stop stop-color="#FBC4AF"/>
<stop offset="1" stop-color="#EA8B69"/>
</linearGradient>
<linearGradient id="paint9_linear_3913_82656" x1="388.564" y1="149.316" x2="397.402" y2="153.481" gradientUnits="userSpaceOnUse">
<stop stop-color="#FBC4AF"/>
<stop offset="1" stop-color="#EA8B69"/>
</linearGradient>
<linearGradient id="paint10_linear_3913_82656" x1="393.834" y1="146.685" x2="398.703" y2="158.306" gradientUnits="userSpaceOnUse">
<stop stop-color="#FBC4AF"/>
<stop offset="1" stop-color="#EA8B69"/>
</linearGradient>
<linearGradient id="paint11_linear_3913_82656" x1="478.02" y1="157.755" x2="463.467" y2="177.188" gradientUnits="userSpaceOnUse">
<stop stop-color="#FBC4AF"/>
<stop offset="1" stop-color="#EA8B69"/>
</linearGradient>
<linearGradient id="paint12_linear_3913_82656" x1="431.074" y1="184.828" x2="429.649" y2="166.19" gradientUnits="userSpaceOnUse">
<stop stop-color="#FBC4AF"/>
<stop offset="1" stop-color="#EA8B69"/>
</linearGradient>
<linearGradient id="paint13_linear_3913_82656" x1="427.999" y1="184.972" x2="428.672" y2="180.155" gradientUnits="userSpaceOnUse">
<stop stop-color="#FBC4AF"/>
<stop offset="1" stop-color="#EA8B69"/>
</linearGradient>
<linearGradient id="paint14_linear_3913_82656" x1="738.616" y1="82.1152" x2="457.725" y2="155.148" gradientUnits="userSpaceOnUse">
<stop stop-color="white" stop-opacity="0"/>
<stop offset="1" stop-color="#9DC2E7"/>
</linearGradient>
<linearGradient id="paint15_linear_3913_82656" x1="173.724" y1="88.9085" x2="365.58" y2="287.373" gradientUnits="userSpaceOnUse">
<stop stop-color="white" stop-opacity="0"/>
<stop offset="1" stop-color="#9DC2E7"/>
</linearGradient>
<linearGradient id="paint16_linear_3913_82656" x1="768.223" y1="338.71" x2="365.027" y2="443.542" gradientUnits="userSpaceOnUse">
<stop stop-color="white" stop-opacity="0"/>
<stop offset="1" stop-color="#9DC2E7"/>
</linearGradient>
<linearGradient id="paint17_linear_3913_82656" x1="71.7769" y1="358.972" x2="474.973" y2="463.805" gradientUnits="userSpaceOnUse">
<stop stop-color="white" stop-opacity="0"/>
<stop offset="1" stop-color="#9DC2E7"/>
</linearGradient>
</defs>
</svg>
