<svg width="352" height="236" viewBox="0 0 352 236" fill="none" xmlns="http://www.w3.org/2000/svg">
<path d="M266.373 163.84L261.667 149.328L253.81 152.142L237.762 102.636L219.87 109.044L219.924 109.213L214.153 135.402L205.942 172.658L210.732 183.776L227.626 177.724L233.776 175.52L240.623 173.066L246.213 190.313L264.105 183.904L258.515 166.657L266.373 163.84ZM233.84 159.298L229.781 160.753L222.009 163.538L227.314 135.845L227.813 133.548L235.918 158.553L233.84 159.298Z" fill="#0077DB"/>
<path opacity="0.25" d="M258.349 166.186L257.893 166.35L258.042 166.811L263.285 182.985L253.135 178.421L234.981 109.656L234.513 107.882L234.017 109.648L227.335 133.413L227.332 133.424L227.329 133.436L224.449 145.965L214.701 135.255L220.402 109.386L237.449 103.28L253.338 152.297L253.497 152.788L253.982 152.614L261.354 149.973L265.751 163.533L258.349 166.186Z" fill="#0C0C0C" stroke="#0C0C0C"/>
<path opacity="0.25" d="M233.268 175.17L228.176 176.995L233.326 159.915C233.321 160.178 233.316 160.517 233.309 160.92C233.292 161.939 233.271 163.364 233.255 164.991C233.223 168.123 233.207 172.006 233.268 175.17Z" fill="#0C0C0C" stroke="#0C0C0C"/>
<path d="M233.841 159.299C233.841 159.299 232.304 157.27 229.62 157.504C226.937 157.739 225.44 158.797 225.349 161.736C225.259 164.675 225.926 179.485 225.314 185.363C224.701 191.241 228.512 191.828 228.731 187.479C228.95 183.13 227.33 169.494 228.531 167.261C229.732 165.028 229.001 169.729 230.261 171.258C231.521 172.786 232.863 170.082 231.521 166.438C230.179 162.794 233.841 159.299 233.841 159.299Z" fill="url(#paint0_linear_3913_83162)"/>
<path d="M69.9949 137.357C69.5353 137.357 69.195 137.331 69.0482 137.266C68.8767 137.19 68.3537 136.961 63.7881 128.393L64.6089 127.91C66.314 131.109 68.8998 135.766 69.4473 136.362C69.9442 136.446 72.6748 136.246 75.0943 135.99L75.1889 136.975C73.6655 137.135 71.3279 137.357 69.9949 137.357Z" fill="#F26647"/>
<path d="M86.543 141.509V141.796C86.543 141.796 86.2937 147.234 82.421 147C82.4112 147 82.402 146.997 82.3923 146.997C79.9974 146.834 77.033 145.659 75.0454 144.786C73.7963 144.237 72.9304 143.807 72.8342 143.824C72.5824 143.866 75.7674 157.796 75.725 158.59C75.7204 158.696 75.6968 158.81 75.6615 158.927C75.4358 159.681 74.6478 160.586 74.1749 160.66C74.1253 160.668 74.0245 160.571 73.8812 160.383C72.4412 158.501 66.741 147.569 66.5855 143.999C66.4186 140.077 68.3049 137.714 70.8625 137.264C72.7493 136.933 78.2662 137.731 81.0301 138.174C82.0116 138.332 82.6441 138.444 82.6441 138.444L86.543 141.509Z" fill="#0A2533"/>
<path opacity="0.25" d="M75.2216 158.56C75.2221 158.566 75.2222 158.568 75.2224 158.567L75.2222 158.572C75.22 158.623 75.2076 158.693 75.1797 158.786L75.1792 158.787C75.1009 159.049 74.923 159.362 74.7038 159.635C74.7618 159.372 74.7988 159.091 74.8204 158.8C74.875 158.069 74.8358 157.217 74.7372 156.302C74.7038 155.992 74.6634 155.674 74.617 155.348C74.6677 155.593 74.7164 155.83 74.7625 156.057C74.9067 156.765 75.0258 157.37 75.1073 157.822C75.1481 158.048 75.1789 158.231 75.1986 158.368C75.2151 158.484 75.22 158.542 75.2216 158.56ZM72.377 144.937C72.2268 144.23 72.1291 143.675 72.1004 143.301C72.2041 143.353 72.3207 143.421 72.4497 143.501C72.4426 143.509 72.4361 143.517 72.4301 143.525C72.3784 143.592 72.3549 143.657 72.3443 143.691C72.3231 143.759 72.3191 143.819 72.3178 143.846C72.3146 143.91 72.3191 143.979 72.3243 144.037C72.3355 144.16 72.3591 144.326 72.391 144.522C72.4553 144.917 72.5603 145.475 72.6917 146.138C72.7715 146.54 72.8614 146.983 72.9585 147.456C72.7347 146.521 72.532 145.667 72.377 144.937ZM72.1018 142.962C72.1023 142.96 72.1026 142.959 72.1026 142.959C72.1027 142.959 72.1024 142.96 72.1018 142.962Z" fill="#0C0C0C" stroke="#0C0C0C"/>
<path opacity="0.25" d="M82.4256 138.917L86.0344 141.754V141.784L86.0343 141.784L86.0318 141.824C86.0293 141.859 86.0251 141.913 86.0184 141.982C86.005 142.121 85.9815 142.321 85.9416 142.562C85.8615 143.045 85.7174 143.678 85.4631 144.298C85.2077 144.92 84.8531 145.498 84.3687 145.904C84.1086 146.123 83.8047 146.298 83.444 146.402C83.7578 145.656 83.7958 144.748 83.7583 143.847L82.4256 138.917ZM82.4256 138.917C82.3518 138.905 82.2463 138.886 82.113 138.864C82.0609 138.855 82.0047 138.845 81.9444 138.835M82.4256 138.917L81.9444 138.835M81.9444 138.835C82.2461 139.413 82.5745 140.08 82.8674 140.758C83.3223 141.811 83.7214 142.956 83.7583 143.847L81.9444 138.835Z" fill="#0C0C0C" stroke="#0C0C0C"/>
<path d="M78.3034 123.652C78.1744 123.865 78.0895 124.043 78.0895 124.179C78.0895 124.179 78.0848 124.17 78.0756 124.154C78.0306 124.07 77.8684 123.776 77.6596 123.434C77.3065 122.86 76.8193 122.148 76.5251 122.061C76.0522 121.925 74.7939 123.596 73.0929 123.73C72.9798 123.741 72.8672 123.743 72.7516 123.738C70.8792 123.649 68.8931 120.857 70.4882 117.567C71.046 118.772 72.1918 118.801 72.1918 118.801C72.1918 118.801 71.4927 118.653 71.4671 117.742C73.5064 118.123 74.5682 116.508 76.3301 117.097C78.0894 117.683 77.9794 118.801 77.9794 118.801C77.9794 118.801 79.3202 118.242 79.7388 120.005C80.075 121.416 78.8212 122.806 78.3034 123.652Z" fill="#0A2533"/>
<path d="M78.0726 124.154C77.9528 124.599 77.7241 125.085 77.416 125.477C77.0424 125.958 76.5481 126.308 75.9903 126.294C74.8 126.264 73.6164 124.585 73.0898 123.731C74.7908 123.598 76.0492 121.926 76.522 122.062C76.8163 122.148 77.3029 122.86 77.6565 123.434C77.8648 123.776 78.0275 124.07 78.0726 124.154Z" fill="url(#paint1_linear_3913_83162)"/>
<path d="M79.793 124.324C79.793 124.324 78.899 126.472 78.5628 126.001C78.3816 125.747 77.8591 125.579 77.417 125.477C77.7256 125.084 77.9538 124.599 78.0735 124.154C78.0833 124.17 78.0874 124.179 78.0874 124.179C78.0874 124.042 78.1723 123.864 78.3013 123.652C78.9507 124.167 79.793 124.324 79.793 124.324Z" fill="url(#paint2_linear_3913_83162)"/>
<path d="M86.0837 142.458C84.6581 142.238 80.8022 137.83 80.8022 135.933C80.8022 135.666 80.774 135.369 80.7269 135.046C80.4306 133.072 79.3463 130.178 78.8944 128.132C78.3699 125.753 79.1247 124.862 79.1247 124.862C80.8799 121.689 84.852 127.979 87.1174 133.022L87.12 133.025C87.882 134.724 88.386 136.302 88.4326 137.358C88.5948 140.929 87.5094 142.678 86.0837 142.458Z" fill="#5462AD"/>
<path opacity="0.25" d="M87.5459 137.022C87.6651 136.926 87.7657 136.812 87.8486 136.682C87.8969 136.938 87.9263 137.172 87.9355 137.381L87.9356 137.381C88.0151 139.126 87.7845 140.358 87.4096 141.106C87.224 141.476 87.0143 141.706 86.8115 141.834C86.616 141.957 86.403 142.001 86.163 141.964C86.0788 141.951 85.9279 141.896 85.7079 141.764C85.4957 141.637 85.2502 141.456 84.9823 141.231C84.447 140.779 83.8516 140.17 83.2949 139.504C82.7382 138.838 82.2309 138.128 81.8659 137.478C81.4896 136.807 81.3051 136.272 81.3051 135.934C81.3051 135.643 81.2757 135.332 81.2295 135.007L81.2212 134.242L82.378 127.868C82.4701 128.043 82.5672 128.239 82.6659 128.456C83.1659 129.553 83.7071 131.177 83.8563 133.268C83.9388 134.432 84.3069 135.39 84.7992 136.081C85.2793 136.755 85.9227 137.23 86.5765 137.296C86.9168 137.33 87.2608 137.25 87.5459 137.022Z" fill="#0C0C0C" stroke="#0C0C0C"/>
<path d="M83.0904 132.938C83.053 132.972 82.987 132.999 82.9 133.024C82.2388 133.216 80.3122 133.187 79.5098 133.022C79.39 132.997 79.2933 132.967 79.2324 132.938C78.7033 132.673 79.2324 132.025 79.0656 130.88C78.8983 129.732 78.4791 126.383 80.1003 125.354C81.7962 124.278 83.0336 128.351 83.0904 130.38C83.1472 132.409 83.4552 132.614 83.0904 132.938Z" fill="#5462AD"/>
<path d="M82.899 133.024C82.899 133.024 82.8217 137.978 81.9226 140.316C81.9226 140.318 81.9226 140.318 81.9226 140.32C81.6427 141.048 81.283 141.52 80.8193 141.511C78.8691 141.466 74.4887 136.596 74.0891 136.418C73.6914 136.242 71.6988 136.551 71.7622 136.242C71.8257 135.933 72.602 135.25 73.4392 134.921C74.2794 134.59 74.131 134.788 79.5185 137.39C79.4453 136.89 79.4761 134.729 79.4996 133.504C79.5021 133.318 79.5073 133.155 79.5093 133.022C80.3117 133.187 82.2379 133.217 82.899 133.024Z" fill="url(#paint3_linear_3913_83162)"/>
<path d="M77.3349 161.939C77.4715 162.822 71.8297 168.859 72.1234 167.274C72.4151 165.686 74.1775 160.66 74.1775 160.66C74.6503 160.585 75.4384 159.681 75.6641 158.926C76.1256 159.767 77.2197 161.207 77.3349 161.939Z" fill="#5462AD"/>
<path opacity="0.25" d="M82.4203 143.397C82.4203 143.397 73.3642 141.609 71.5752 142.473C69.7862 143.337 74.8482 158.384 74.8482 158.384" stroke="white" stroke-width="0.4597" stroke-miterlimit="10"/>
<path opacity="0.25" d="M81.2548 133.657C81.6359 133.66 82.0346 133.648 82.3823 133.615C82.3799 133.677 82.3772 133.744 82.3743 133.814C82.3575 134.209 82.3303 134.725 82.287 135.301C82.2637 135.229 82.2385 135.16 82.2113 135.095C81.9953 134.574 81.52 134.148 81.0719 133.829C80.9839 133.766 80.8942 133.706 80.8039 133.648C80.9542 133.654 81.1056 133.657 81.2548 133.657Z" fill="#0C0C0C" stroke="#0C0C0C"/>
<path d="M228.283 106.809C228.099 107.551 227.793 108.506 227.318 109.784C226.64 111.617 225.617 114.115 224.109 117.598C224.072 119.367 223.535 130.647 223.389 133.244C223.371 133.561 223.359 133.749 223.354 133.774C223.333 133.887 222.945 134.105 222.522 134.216C222.121 134.325 221.694 134.34 221.509 134.082C221.131 133.554 218.574 122.885 218.449 120.373C218.322 117.86 218.197 118.434 221.131 108.429C220.418 108.78 215.797 108.649 215.797 108.649C215.797 108.649 216.644 120.902 216.649 120.991C216.649 121.003 216.642 121.033 216.625 121.075C216.572 121.243 216.402 121.617 216.219 121.805C216.136 121.891 216.051 121.94 215.973 121.916C215.929 121.904 215.82 121.799 215.663 121.624C214.777 120.634 212.344 117.305 211.026 114.201C209.475 110.543 209.096 107.985 210.565 105.43C212.033 102.873 219.467 102.677 219.467 102.677C219.938 102.816 221.02 102.952 222.09 103.219C222.405 103.296 222.721 103.387 223.017 103.491C224.646 104.06 227.748 104.782 228.417 104.377C228.565 104.922 228.598 105.56 228.283 106.809Z" fill="#6561AB"/>
<path d="M234.444 98.2914C234.15 98.4668 230.734 98.3333 228.425 97.408C228.437 97.8357 228.489 98.5087 228.548 99.2732C228.64 100.478 228.746 101.91 228.72 102.954C228.705 103.698 228.623 104.247 228.425 104.373C228.423 104.376 228.421 104.378 228.416 104.378C228.061 104.594 227.021 104.49 225.878 104.262C225.139 104.114 224.358 103.913 223.692 103.713C223.449 103.639 223.222 103.565 223.017 103.493C221.709 103.033 220.077 102.857 219.467 102.679C219.314 102.634 219.227 102.592 219.221 102.543C219.203 102.3 219.788 101.751 220.064 101.177C220.097 101.106 220.141 100.999 220.191 100.863C220.414 100.262 220.765 99.1242 220.934 98.3995C221.035 97.9718 221.073 97.6899 220.984 97.7388C220.711 97.8922 219.097 101.066 218.908 101.066C218.843 101.066 218.518 100.871 218.132 100.596C217.483 100.133 216.666 99.4529 216.647 99.129C216.643 99.0844 216.655 99.0473 216.685 99.0177C217.064 98.6416 219.955 93.529 221.004 92.4385C221.496 91.9236 222.077 91.6148 222.55 91.4319C223.079 91.2242 223.48 91.1769 223.48 91.1769C224.103 91.1543 224.731 91.2414 225.343 91.4044C227.422 91.9511 229.331 93.3316 230.418 94.0137C231.822 94.8944 232.786 94.6523 233.142 94.8724C233.5 95.0957 234.735 98.1133 234.444 98.2914Z" fill="#F26647"/>
<path d="M228.722 102.951C226.788 102.975 222.489 102.795 220.193 100.86C220.417 100.26 220.768 99.1217 220.937 98.397C220.937 98.397 225.475 99.8437 228.55 99.2701C228.642 100.475 228.748 101.907 228.722 102.951Z" fill="#F69181"/>
<path opacity="0.25" d="M223.518 91.6757C223.51 91.6769 223.5 91.6785 223.487 91.6806C223.45 91.6869 223.393 91.6975 223.32 91.7141C223.263 91.7269 223.198 91.7432 223.125 91.7638C223.165 91.8876 223.221 92.0143 223.298 92.1294C223.448 92.3528 223.69 92.5534 224.144 92.5906L223.518 91.6757ZM223.518 91.6757C223.934 91.6627 224.357 91.7032 224.78 91.7873C224.736 92.0063 224.673 92.1957 224.59 92.3379C224.526 92.446 224.462 92.5085 224.402 92.5435C224.347 92.5756 224.269 92.6008 224.144 92.5906L223.518 91.6757Z" fill="#0C0C0C" stroke="#0C0C0C"/>
<path d="M224.818 89.5637C224.818 89.5637 224.609 88.6609 224.188 88.1961C223.847 88.7798 222.532 89.0789 221.518 89.1559C221.037 89.193 220.624 89.1806 220.414 89.1236C219.701 86.2125 221.924 84.9358 223.162 84.847C224.397 84.7577 225.51 85.725 225.174 87.2018C226.284 88.3521 224.818 89.5637 224.818 89.5637Z" fill="#321212"/>
<path d="M224.822 89.56C224.758 89.7531 224.659 90.0921 224.49 90.4084H224.487C224.21 90.9351 223.744 91.4026 222.937 91.0588C222.909 91.0465 222.881 91.0341 222.855 91.0196C222.175 90.6952 221.822 90.0646 221.644 89.5675C221.588 89.4115 221.548 89.2684 221.521 89.1522C222.535 89.0752 223.851 88.7761 224.192 88.1924C224.211 88.215 224.23 88.237 224.248 88.2591C224.631 88.739 224.822 89.56 224.822 89.56Z" fill="url(#paint4_linear_3913_83162)"/>
<path d="M224.717 91.8095C224.592 92.6257 223.312 92.5816 223.173 92.0522C223.1 91.7778 223.018 91.5131 222.954 91.32C222.898 91.1397 222.855 91.023 222.855 91.023V91.0208C222.882 91.0354 222.91 91.0477 222.938 91.0601C223.745 91.4039 224.211 90.9369 224.488 90.4097H224.49C224.403 90.5926 224.636 90.8229 224.714 91.2554C224.743 91.4114 224.75 91.5949 224.717 91.8095Z" fill="url(#paint5_linear_3913_83162)"/>
<path d="M218.069 124.12C217.944 125.134 212.954 129.102 213.039 128.397C213.121 127.692 215.662 121.624 215.662 121.624C215.82 121.8 215.928 121.904 215.972 121.916C216.224 121.993 216.544 121.32 216.624 121.075C217.295 121.961 218.182 123.215 218.069 124.12Z" fill="#262166"/>
<path d="M221.506 142.342C220.332 139.695 221.506 134.083 221.506 134.083C221.883 134.612 223.308 133.994 223.35 133.774C223.356 133.749 223.367 133.561 223.386 133.245C223.386 133.245 223.574 135.934 223.798 138.211C224.021 140.489 222.681 144.986 221.506 142.342Z" fill="#262166"/>
<path opacity="0.25" d="M215.797 108.65C215.298 108.684 215.298 108.684 215.298 108.684L215.298 108.685L215.298 108.686L215.299 108.693L215.301 108.719L215.308 108.822L215.335 109.211L215.431 110.6L215.722 114.822L215.925 117.753C215.685 116.473 215.457 115.137 215.289 113.879C215.109 112.534 215.001 111.298 215.018 110.322C215.027 109.834 215.067 109.428 215.138 109.114C215.186 108.902 215.243 108.757 215.297 108.66L215.298 108.684L215.797 108.65ZM215.797 108.65L215.81 108.182C215.81 108.182 215.81 108.182 215.81 108.182L215.797 108.65ZM215.862 108.151L215.855 108.151C216.166 107.936 216.539 107.741 216.953 107.569C217.602 107.298 218.321 107.094 218.998 106.954C219.675 106.814 220.295 106.74 220.739 106.724C220.839 106.72 220.926 106.72 221 106.722C220.999 106.734 220.997 106.746 220.995 106.759C220.964 106.956 220.916 107.193 220.864 107.424C220.812 107.651 220.759 107.868 220.718 108.029C220.688 108.035 220.656 108.04 220.62 108.046C220.445 108.073 220.221 108.095 219.962 108.113C219.443 108.15 218.81 108.166 218.192 108.171C217.575 108.177 216.98 108.172 216.538 108.165C216.317 108.161 216.135 108.158 216.008 108.155L215.862 108.151Z" fill="#0C0C0C" stroke="#0C0C0C"/>
<path d="M217.806 102.637C217.738 102.786 217.703 102.91 217.725 102.991C217.825 103.402 217.289 108.544 217.485 109.073C217.68 109.603 217.793 111.277 217.68 112.336C217.566 113.395 215.471 114.04 215.471 113.13C215.471 112.217 215.723 110.073 215.807 109.249C215.892 108.428 215.109 102.477 215.318 101.653C215.455 101.116 215.979 100.207 216.327 99.6401C216.513 99.3361 216.649 99.1279 216.649 99.1279C216.681 99.6444 218.739 101.065 218.91 101.065C218.91 101.064 218.082 102.039 217.806 102.637Z" fill="url(#paint6_linear_3913_83162)"/>
<path opacity="0.25" d="M225.384 104.665C225.588 104.71 225.791 104.752 225.99 104.789C226.532 104.892 227.059 104.966 227.502 104.987C227.684 104.996 227.861 104.996 228.023 104.984C228.047 105.291 228.022 105.684 227.904 106.249C227.207 106.108 226.485 105.753 225.962 105.201L225.961 105.201C225.788 105.018 225.593 104.839 225.384 104.665Z" fill="#0C0C0C" stroke="#0C0C0C"/>
<path opacity="0.25" d="M223.264 122.477C223.326 121.516 223.407 120.715 223.511 120.144C223.401 122.729 223.219 126.607 223.075 129.563C223.084 128.538 223.096 127.476 223.117 126.449C223.145 125.025 223.189 123.648 223.264 122.477Z" fill="#0C0C0C" stroke="#0C0C0C"/>
<path opacity="0.25" d="M220.338 98.7167C220.41 98.45 220.467 98.2132 220.501 98.0355C220.506 98.0094 220.511 97.9852 220.515 97.9631C220.485 98.0106 220.454 98.0578 220.424 98.1048C220.131 98.559 219.817 99.0077 219.517 99.4338L219.488 99.4751C219.247 99.8173 219.018 100.143 218.812 100.453C218.842 100.473 218.871 100.49 218.898 100.506C218.961 100.544 219.006 100.569 219.034 100.583C219.044 100.588 219.048 100.59 219.048 100.59C219.048 100.59 219.047 100.589 219.044 100.588C219.041 100.587 219.029 100.583 219.012 100.579C218.998 100.575 218.959 100.566 218.907 100.566C218.823 100.566 218.756 100.588 218.71 100.609C218.701 100.622 218.693 100.634 218.685 100.647L218.684 100.648C218.638 100.719 218.6 100.781 218.568 100.84L218.131 100.596M220.338 98.7167L220.736 97.3042C220.635 97.3615 220.564 97.4448 220.535 97.4786C220.494 97.5274 220.452 97.5837 220.413 97.6407C220.333 97.7555 220.24 97.903 220.142 98.0654C219.947 98.3881 219.713 98.8004 219.486 99.2007L219.478 99.2135C219.247 99.6221 219.023 100.016 218.845 100.309C218.819 100.351 218.795 100.391 218.772 100.428C218.669 100.362 218.55 100.281 218.421 100.189L218.28 100.386L218.28 100.386L218.131 100.596M220.338 98.7167C220.204 98.9481 220.061 99.2008 219.918 99.4518C219.455 100.267 219.002 101.066 218.907 101.066C218.842 101.066 218.517 100.871 218.131 100.596M220.338 98.7167L218.265 100.376M218.131 100.596C218.171 100.525 218.215 100.452 218.265 100.376M218.265 100.376C218.507 100 218.787 99.6023 219.076 99.1913C219.963 97.9312 220.935 96.5479 221.181 95.3022L218.265 100.376ZM221.392 99.9794C221.542 100.908 221.804 101.901 222.268 102.75C221.856 102.645 221.446 102.561 221.073 102.489C220.863 102.449 220.669 102.414 220.493 102.382C220.28 102.343 220.093 102.309 219.937 102.277C219.948 102.262 219.96 102.247 219.972 102.231C220.138 102.009 220.363 101.709 220.513 101.394L220.514 101.392C220.671 101.062 220.979 100.125 221.208 99.322C221.231 99.2412 221.254 99.1609 221.275 99.0817C221.305 99.3756 221.343 99.6768 221.392 99.9794ZM221.188 96.7712C221.186 96.9231 221.184 97.0892 221.185 97.267C221.158 97.2567 221.128 97.2483 221.097 97.2424C221.043 97.2323 220.992 97.2315 220.947 97.2362C221.032 97.0823 221.113 96.9271 221.188 96.7712ZM220.549 97.9088C220.642 97.7601 220.734 97.6094 220.822 97.4572L220.983 97.7393C220.93 97.769 220.827 97.9116 220.694 98.1224C220.646 98.0825 220.613 98.0384 220.591 98.002C220.57 97.9671 220.557 97.9346 220.549 97.9088Z" fill="#0C0C0C" stroke="#0C0C0C"/>
<path opacity="0.25" d="M228.127 103.894C228.12 103.922 228.113 103.945 228.107 103.963C228.079 103.97 228.037 103.978 227.977 103.984C227.848 103.997 227.679 103.998 227.47 103.985C227.256 103.972 227.014 103.945 226.753 103.907C227.048 103.395 227.244 102.809 227.376 102.216C227.574 101.323 227.638 100.363 227.646 99.5003C227.654 98.735 227.618 98.0314 227.591 97.5094C227.614 97.5234 227.637 97.537 227.659 97.5502C227.759 97.6101 227.854 97.6643 227.934 97.7095C227.954 98.0995 227.992 98.6012 228.034 99.144L228.035 99.1632C228.088 99.8542 228.147 100.622 228.184 101.353C228.222 102.095 228.237 102.78 228.205 103.3C228.189 103.561 228.162 103.759 228.127 103.894ZM228.061 104.027C228.057 104.031 228.06 104.027 228.068 104.019L228.061 104.027ZM228.086 104.014C228.086 104.014 228.086 104.013 228.087 104.011C228.086 104.013 228.086 104.014 228.086 104.014Z" fill="#0C0C0C" stroke="#0C0C0C"/>
<path opacity="0.25" d="M218.15 101.211C218.121 101.248 218.092 101.286 218.063 101.325C218.044 101.349 218.025 101.375 218.006 101.4C217.935 101.252 217.854 101.099 217.768 100.946C217.903 101.043 218.032 101.133 218.15 101.211Z" fill="#0C0C0C" stroke="#0C0C0C"/>
<g opacity="0.25">
<mask id="path-35-inside-1_3913_83162" fill="white">
<path d="M224.248 88.2591C223.745 89.4292 222.265 89.5648 221.644 89.5675C221.588 89.4115 221.548 89.2684 221.521 89.1522C222.535 89.0752 223.851 88.7761 224.192 88.1924C224.211 88.215 224.23 88.237 224.248 88.2591Z"/>
</mask>
<path d="M224.248 88.2591C223.745 89.4292 222.265 89.5648 221.644 89.5675C221.588 89.4115 221.548 89.2684 221.521 89.1522C222.535 89.0752 223.851 88.7761 224.192 88.1924C224.211 88.215 224.23 88.237 224.248 88.2591Z" fill="#0C0C0C"/>
<path d="M224.248 88.2591L225.167 88.654L225.409 88.0896L225.016 87.6181L224.248 88.2591ZM221.644 89.5675L220.703 89.9069L220.943 90.5706L221.648 90.5675L221.644 89.5675ZM221.521 89.1522L221.446 88.155L220.292 88.2426L220.546 89.3713L221.521 89.1522ZM224.192 88.1924L224.958 87.5501L224.045 86.4603L223.328 87.6882L224.192 88.1924ZM223.329 87.8642C223.226 88.1045 223.011 88.2829 222.657 88.4083C222.296 88.5359 221.896 88.5664 221.639 88.5675L221.648 90.5675C222.012 90.5659 222.664 90.5273 223.324 90.2939C223.99 90.0583 224.767 89.5838 225.167 88.654L223.329 87.8642ZM222.584 89.2281C222.543 89.1125 222.514 89.0096 222.497 88.9331L220.546 89.3713C220.581 89.5272 220.632 89.7105 220.703 89.9069L222.584 89.2281ZM221.597 90.1493C222.158 90.1067 222.82 90.0023 223.41 89.8159C223.705 89.7226 224.011 89.6002 224.285 89.4372C224.55 89.279 224.853 89.0439 225.055 88.6966L223.328 87.6882C223.36 87.6327 223.37 87.6539 223.262 87.7184C223.162 87.778 223.011 87.8447 222.808 87.9088C222.402 88.0371 221.899 88.1207 221.446 88.155L221.597 90.1493ZM223.425 88.8346C223.469 88.8874 223.447 88.8606 223.48 88.9001L225.016 87.6181C225.004 87.604 224.992 87.5905 224.983 87.5796C224.973 87.5678 224.966 87.5589 224.958 87.5501L223.425 88.8346Z" fill="#0C0C0C" mask="url(#path-35-inside-1_3913_83162)"/>
</g>
<g opacity="0.25">
<mask id="path-37-inside-2_3913_83162" fill="white">
<path d="M224.714 91.2554C224.619 91.3323 224.505 91.3894 224.361 91.4238C223.686 91.5847 223.211 91.4464 222.954 91.32C222.898 91.1397 222.855 91.023 222.855 91.023V91.0208C222.882 91.0354 222.91 91.0477 222.938 91.0601C223.745 91.4039 224.211 90.9369 224.488 90.4097H224.49C224.403 90.5926 224.636 90.8223 224.714 91.2554Z"/>
</mask>
<path d="M224.714 91.2554C224.619 91.3323 224.505 91.3894 224.361 91.4238C223.686 91.5847 223.211 91.4464 222.954 91.32C222.898 91.1397 222.855 91.023 222.855 91.023V91.0208C222.882 91.0354 222.91 91.0477 222.938 91.0601C223.745 91.4039 224.211 90.9369 224.488 90.4097H224.49C224.403 90.5926 224.636 90.8223 224.714 91.2554Z" fill="#0C0C0C"/>
<path d="M224.714 91.2554L225.346 92.0298L225.801 91.6581L225.698 91.0798L224.714 91.2554ZM224.361 91.4238L224.593 92.3966L224.594 92.3963L224.361 91.4238ZM222.954 91.32L222 91.6181L222.127 92.0273L222.512 92.2168L222.954 91.32ZM222.855 91.023H221.855V91.1992L221.916 91.3648L222.855 91.023ZM222.855 91.0208L223.342 90.1471L221.855 89.3198V91.0208H222.855ZM222.938 91.0601L222.535 91.9756L222.546 91.9801L222.938 91.0601ZM224.488 90.4097V89.4097H223.884L223.603 89.9441L224.488 90.4097ZM224.49 90.4097L225.394 90.8392L226.073 89.4097H224.49V90.4097ZM224.081 90.481C224.095 90.4695 224.109 90.4607 224.121 90.4549C224.133 90.4493 224.137 90.4493 224.128 90.4513L224.594 92.3963C224.87 92.3302 225.125 92.2109 225.346 92.0298L224.081 90.481ZM224.129 90.451C223.702 90.5528 223.464 90.4566 223.397 90.4231L222.512 92.2168C222.957 92.4362 223.67 92.6165 224.593 92.3966L224.129 90.451ZM223.909 91.0218C223.878 90.9222 223.85 90.8396 223.83 90.7808C223.82 90.7514 223.812 90.7278 223.806 90.711C223.803 90.7025 223.8 90.6958 223.799 90.6907C223.798 90.6882 223.797 90.6862 223.796 90.6846C223.796 90.6838 223.796 90.6831 223.796 90.6825C223.796 90.6822 223.796 90.682 223.795 90.6817C223.795 90.6816 223.795 90.6815 223.795 90.6814C223.795 90.6814 223.795 90.6813 223.795 90.6813C223.795 90.6812 223.795 90.6812 223.795 90.6812C223.795 90.6812 223.795 90.6811 222.855 91.023C221.916 91.3648 221.916 91.3648 221.916 91.3648C221.916 91.3648 221.916 91.3647 221.916 91.3647C221.916 91.3647 221.916 91.3646 221.916 91.3646C221.916 91.3645 221.916 91.3645 221.916 91.3644C221.916 91.3643 221.915 91.3642 221.915 91.3642C221.915 91.364 221.915 91.364 221.915 91.3641C221.916 91.3643 221.916 91.3649 221.916 91.366C221.917 91.368 221.918 91.3718 221.92 91.3771C221.924 91.3878 221.93 91.4047 221.937 91.4269C221.953 91.4716 221.975 91.5375 222 91.6181L223.909 91.0218ZM223.855 91.023V91.0208H221.855V91.023H223.855ZM222.369 91.8946C222.443 91.9359 222.515 91.9667 222.535 91.9755L223.34 90.1447C223.333 90.1414 223.328 90.1394 223.324 90.1377C223.323 90.1369 223.321 90.1363 223.321 90.1359C223.32 90.1355 223.319 90.1353 223.319 90.1353C223.319 90.1353 223.32 90.1356 223.321 90.136C223.322 90.1365 223.323 90.1372 223.325 90.1381C223.329 90.14 223.334 90.1429 223.342 90.1471L222.369 91.8946ZM222.546 91.9801C223.192 92.2555 223.838 92.2455 224.396 91.9361C224.896 91.6593 225.196 91.212 225.373 90.8752L223.603 89.9441C223.558 90.0303 223.515 90.0931 223.479 90.136C223.443 90.1784 223.424 90.1884 223.427 90.1869C223.435 90.1823 223.45 90.1781 223.459 90.1779C223.463 90.1778 223.424 90.1803 223.33 90.1401L222.546 91.9801ZM224.488 91.4097H224.49V89.4097H224.488V91.4097ZM223.587 89.9802C223.445 90.2793 223.459 90.5628 223.497 90.7541C223.53 90.9209 223.593 91.067 223.62 91.1291C223.69 91.2946 223.714 91.3483 223.729 91.431L225.698 91.0798C225.635 90.7294 225.505 90.4517 225.461 90.3484C225.455 90.3348 225.451 90.3249 225.448 90.3173C225.447 90.3136 225.446 90.3109 225.445 90.309C225.445 90.308 225.444 90.3073 225.444 90.3068C225.444 90.3063 225.444 90.3061 225.444 90.3061C225.444 90.3061 225.444 90.3061 225.444 90.3063C225.444 90.3064 225.444 90.3066 225.444 90.3069C225.444 90.3074 225.445 90.3082 225.445 90.3092C225.446 90.3113 225.447 90.3147 225.448 90.3191C225.45 90.3278 225.454 90.3424 225.458 90.362C225.466 90.4004 225.476 90.4676 225.469 90.554C225.463 90.6446 225.439 90.7428 225.394 90.8392L223.587 89.9802Z" fill="#0C0C0C" mask="url(#path-37-inside-2_3913_83162)"/>
</g>
<path d="M231.401 0V109.784" stroke="#0A2533" stroke-width="0.9195" stroke-miterlimit="10"/>
<path d="M235.804 96.714C235.8 96.7436 235.793 96.7732 235.788 96.8006C235.511 98.1289 234.499 98.2699 234.308 98.1833C234.118 98.0966 233.614 97.4882 233.174 95.3442C233.164 95.3017 233.158 95.2598 233.148 95.2156C233.148 95.2156 232.198 92.6532 231.751 91.4211C230.648 90.7336 230.438 91.0133 230.283 90.2193C230.13 89.4252 230.62 88.3987 230.9 88.2502C231.179 88.1044 232.436 89.3385 232.605 89.7937C232.772 90.2483 236.056 95.3039 235.804 96.714Z" fill="url(#paint7_linear_3913_83162)"/>
<path opacity="0.25" d="M234.506 97.6959C234.494 97.681 234.482 97.6637 234.468 97.6435C234.504 97.6565 234.541 97.6681 234.577 97.6784C234.552 97.6865 234.528 97.6924 234.507 97.6965C234.506 97.6963 234.506 97.6961 234.506 97.6959ZM234.436 97.7041C234.43 97.7039 234.43 97.7035 234.436 97.7041L234.436 97.7041Z" fill="#0C0C0C" stroke="#0C0C0C"/>
<path d="M198.751 166.24L196.055 151.764C194.06 141.057 190.213 133.246 184.515 128.328C178.815 123.413 171.774 121.818 163.391 123.545C155.008 125.271 149.064 129.52 145.56 136.289C142.055 143.062 141.302 151.82 143.304 162.565L146.01 177.096C147.998 187.766 151.84 195.56 157.54 200.474C159.947 202.549 162.596 204.033 165.487 204.922C169.442 206.142 173.851 206.248 178.713 205.248C181.233 204.731 183.534 203.981 185.611 203.002C190.42 200.736 194.047 197.241 196.494 192.512C200 185.741 200.751 176.982 198.751 166.24ZM181.92 185.671C180.998 188.64 179.048 190.43 176.069 191.044C172.985 191.679 170.479 190.769 168.546 188.311C167.228 186.636 166.101 184.15 165.167 180.853C165.167 180.851 165.167 180.848 165.167 180.848C165.165 180.843 165.165 180.838 165.162 180.831C164.729 179.302 164.339 177.598 163.99 175.721L160.206 155.397C159.319 150.059 159.316 145.939 160.196 143.035C161.076 140.132 163.024 138.368 166.037 137.749C168.336 137.274 170.319 137.683 171.985 138.969H171.987C172.554 139.409 173.085 139.948 173.58 140.592C175.525 143.122 177.031 147.248 178.094 152.964L181.757 172.63C182.789 178.355 182.843 182.7 181.92 185.671Z" fill="#FBA219"/>
<path opacity="0.25" d="M182.856 188.119L182.688 188.383L182.853 188.65C182.91 188.743 182.996 188.955 183.099 189.315C183.198 189.661 183.301 190.103 183.407 190.623C183.618 191.662 183.835 192.988 184.045 194.432C184.445 197.178 184.817 200.328 185.08 202.699C183.127 203.588 180.972 204.275 178.618 204.758L178.618 204.758C174.035 205.7 169.886 205.642 166.16 204.597C166.248 204.361 166.331 204.12 166.407 203.876C167.673 199.807 167.507 194.16 167.026 189.507C166.902 188.303 166.756 187.159 166.606 186.119C167.087 187.082 167.604 187.916 168.158 188.62C169.172 189.909 170.355 190.814 171.71 191.307C173.066 191.799 174.559 191.866 176.175 191.533L176.175 191.533C177.74 191.211 179.058 190.573 180.109 189.608C181.16 188.644 181.92 187.373 182.403 185.819L181.925 185.671L182.403 185.819C183.362 182.731 183.289 178.288 182.255 172.54L182.255 172.537L178.592 152.871C178.592 152.871 178.592 152.871 178.592 152.871C177.77 148.452 176.677 144.934 175.297 142.351C175.464 142.592 175.629 142.846 175.794 143.113C177.089 145.203 178.3 147.993 179.396 151.061C181.589 157.193 183.295 164.344 184.3 169.01C185.306 173.681 185.836 177.038 185.673 179.94C185.511 182.816 184.664 185.269 182.856 188.119Z" fill="#0C0C0C" stroke="#0C0C0C"/>
<path d="M166.475 184.651C166.475 184.651 166.86 185.712 168.887 186.299C170.914 186.887 172.814 183.591 174.156 184.651C175.498 185.712 177.645 190.107 179.534 189.437C181.424 188.768 181.983 199.347 181.089 200.523C180.194 201.698 179.551 192.197 177.189 192.481C174.827 192.764 176.616 199.935 175.274 201.228C173.933 202.521 174.492 198.054 173.039 197.231C171.585 196.409 174.604 233.201 172.367 233.788C170.131 234.376 168.678 232.143 169.572 224.267C170.467 216.392 169.348 189.238 168.006 187.828C166.665 186.417 166.749 186.152 166.475 184.651Z" fill="#6561AB"/>
<path d="M165.925 0V128.352" stroke="#0A2533" stroke-width="0.9195" stroke-miterlimit="10"/>
<path d="M194.941 78.719C194.941 78.719 193.16 73.5838 193.306 73.1867C193.453 72.7902 195.41 72.0408 195.554 72.2608C195.697 72.4814 196.934 76.4707 196.724 76.7569C196.514 77.0437 194.941 78.719 194.941 78.719Z" fill="#262166"/>
<path d="M165.298 71.9866C165.298 71.9866 166.385 72.4606 166.869 73.6953C167.352 74.9294 167.164 70.4775 167.164 70.4775L166.64 69.9707L165.298 71.9866Z" fill="url(#paint8_linear_3913_83162)"/>
<path d="M164.737 71.9866C164.737 71.9866 166.1 73.0556 166.331 73.1218C166.561 73.188 167.006 70.3888 166.805 69.9481C166.603 69.507 165.865 69.0664 165.385 69.3531C164.905 69.6399 164.514 71.8134 164.737 71.9866Z" fill="url(#paint9_linear_3913_83162)"/>
<path d="M168.361 72.3066C168.361 72.3066 167.275 69.6618 166.801 69.1991C166.327 68.7364 165.447 69.3314 165.383 69.5735C165.32 69.8156 166.437 69.9921 166.801 70.3891C167.166 70.7862 166.18 73.7172 167.124 74.7534C168.067 75.789 168.361 72.3066 168.361 72.3066Z" fill="url(#paint10_linear_3913_83162)"/>
<path d="M193.598 79.317C193.598 79.317 194.562 78.7661 194.772 78.4793C194.981 78.1926 194.604 77.1128 195.212 76.1213C195.82 75.1292 197.119 75.4159 197.434 76.606C197.748 77.7961 196.931 79.2949 196.553 79.7576C196.176 80.2203 193.598 82.1598 193.598 82.1598" fill="url(#paint11_linear_3913_83162)"/>
<path d="M194.293 81.6174C194.265 81.7933 194.093 82.0946 193.76 82.5056C192.536 84.0093 189.165 86.9527 183.088 90.3168C182.968 90.8312 182.874 91.3557 182.803 91.8797C182.578 93.554 182.582 95.246 182.658 96.7669C182.676 97.158 182.699 97.5389 182.726 97.9048C182.837 99.5075 182.987 100.831 182.947 101.598C182.928 101.934 182.872 102.161 182.764 102.263C182.627 102.388 182.484 102.503 182.333 102.604C179.298 104.652 173.774 101.593 172.88 100.672C172.809 100.601 172.767 100.541 172.758 100.499C172.603 99.8808 173.205 99.2202 173.541 98.1614C173.597 97.9812 173.654 97.5777 173.71 97.0262C173.871 95.3961 174.009 92.4801 174.059 90.2862C174.087 88.8857 174.08 87.7807 174.019 87.4886C174.016 87.4837 174.016 87.4783 174.016 87.4783C173.85 86.7585 168.76 78.6756 167.234 75.8113C166.954 75.2894 166.794 74.9408 166.803 74.8418C166.859 74.1962 168.033 71.9038 168.285 71.9334C168.328 71.9382 168.483 72.1437 168.718 72.4848C169.897 74.2064 173.068 79.4105 173.652 80.0733C174.198 80.6942 176.976 83.7688 178.167 85.0869C178.503 85.4555 178.712 85.6879 178.712 85.6879C179.357 85.6755 180.003 85.6136 180.651 85.5077C186.37 84.5801 191.99 80.3703 193.461 79.2001C193.703 79.0075 193.833 78.8983 193.833 78.8983C193.833 78.8983 194.42 80.7942 194.293 81.6174Z" fill="#F47920"/>
<path d="M180.023 88.3432C178.073 88.6746 178.067 86.0062 178.168 85.0835C178.505 85.452 178.714 85.6844 178.714 85.6844C179.359 85.6721 180.005 85.6102 180.652 85.5042C180.895 86.5555 180.7 88.2297 180.023 88.3432Z" fill="#C54527"/>
<path d="M181.993 82.6231C181.614 82.863 181.12 82.9448 180.489 82.7737C180.005 82.6452 179.437 82.3659 178.776 81.893C178.776 81.893 178.253 82.5537 178.212 83.7653C176.828 82.509 176.492 81.2523 177.666 80.7896C177.183 78.586 178.212 78.1233 179.929 78.0146C181.649 77.9032 182.046 79.7556 183.074 79.7114C183.136 80.6992 182.87 82.0765 181.993 82.6231Z" fill="#262166"/>
<path d="M181.998 82.625C181.98 82.8031 181.951 83.008 181.911 83.2286C181.681 84.5177 181.078 86.3157 180.171 86.2167C180.123 86.2145 180.074 86.2043 180.022 86.1871C179.206 85.9175 178.714 85.0842 178.458 84.4709C178.288 84.0727 178.218 83.7682 178.218 83.7682C178.232 83.3852 178.292 83.0559 178.371 82.7864C178.538 82.2048 178.782 81.896 178.782 81.896C179.443 82.3684 180.01 82.6481 180.495 82.7767C181.125 82.9467 181.62 82.8649 181.998 82.625Z" fill="url(#paint12_linear_3913_83162)"/>
<path d="M180.169 86.9747C180.159 87.4422 180.098 87.8081 179.802 87.8301C179.202 87.8748 178.404 87.0511 178.447 86.1559C178.461 85.8519 178.466 85.528 178.466 85.231C178.466 84.9314 178.461 84.6597 178.456 84.4692C178.713 85.0826 179.204 85.9159 180.021 86.1855C180.073 86.2027 180.122 86.2129 180.169 86.215C180.166 86.4754 180.176 86.7374 180.169 86.9747Z" fill="url(#paint13_linear_3913_83162)"/>
<path d="M194.296 81.6169C194.268 81.7929 194.096 82.0942 193.763 82.5052C193.779 81.4539 193.56 79.8588 193.464 79.2003C193.706 79.0076 193.836 78.8984 193.836 78.8984C193.836 78.8984 194.423 80.7938 194.296 81.6169Z" fill="#C54527"/>
<path d="M168.718 72.4843C167.824 73.2881 167.388 75.0398 167.234 75.8113C166.954 75.2894 166.794 74.9408 166.803 74.8418C166.859 74.1962 168.033 71.9038 168.285 71.9334C168.328 71.9377 168.483 72.1427 168.718 72.4843Z" fill="#C54527"/>
<path d="M182.724 97.9032C180.725 98.2072 176.963 98.4773 173.709 97.0252C173.869 95.3951 174.008 92.4791 174.057 90.2852C175.669 91.0023 179.148 92.2784 182.802 91.8776C182.517 93.9834 182.597 96.1176 182.724 97.9032Z" fill="#FCAF17"/>
<path opacity="0.25" d="M173.541 98.1587C173.412 98.5647 173.244 98.9122 173.094 99.2212C172.854 99.7179 172.662 100.115 172.758 100.496C172.888 101.025 177.869 104.082 181.252 103.101M173.541 98.1587L181.252 103.101M173.541 98.1587C173.597 97.9784 173.654 97.5749 173.71 97.0235L173.541 98.1587ZM181.252 103.101C181.636 102.99 181.999 102.826 182.333 102.601C181.965 102.626 181.58 102.623 181.194 102.596C180.68 102.758 180.108 102.815 179.5 102.787C179.428 102.783 179.355 102.779 179.282 102.773C179.462 102.824 179.646 102.869 179.831 102.909C180.291 103.007 180.773 103.072 181.252 103.101ZM174.529 91.3633C174.541 90.9945 174.551 90.6358 174.558 90.2947L174.558 90.2935C174.564 90.0027 174.569 89.7241 174.571 89.4622C174.277 88.3423 174.049 87.5851 174.019 87.4858C174.068 87.7227 174.082 88.4942 174.07 89.5243C174.133 89.7624 174.199 90.0179 174.267 90.2876C174.267 90.2878 174.267 90.288 174.267 90.2882C174.352 90.6261 174.441 90.9865 174.529 91.3633ZM173.242 100.374C173.238 100.356 173.235 100.337 173.233 100.316C173.229 100.312 173.226 100.308 173.223 100.304C173.215 100.295 173.209 100.289 173.206 100.285C173.214 100.297 173.231 100.328 173.242 100.374Z" fill="#0C0C0C" stroke="#0C0C0C"/>
<path d="M189.81 112.782C189.81 114.31 184.554 122.779 183.465 124.518C183.34 124.718 183.27 124.83 183.27 124.83C183.27 124.83 182.592 124.748 182.034 124.55C181.647 124.408 181.315 124.216 181.315 123.949C181.315 123.894 181.325 123.81 181.341 123.699C181.527 122.519 182.682 118.25 184.164 112.606C183.383 111.607 177.904 107.785 177.904 107.785C177.904 107.785 177.902 107.79 177.899 107.8C177.662 108.376 170.056 126.867 169.192 128.591C169.161 128.653 169.14 128.693 169.126 128.71C168.736 129.24 167.114 129.297 167.002 128.181C167.002 128.179 167.002 128.179 167.002 128.176C166.536 123.502 170.371 109.403 172.156 103.168C172.476 102.05 172.73 101.184 172.883 100.672C173.777 101.592 179.301 104.651 182.336 102.604C182.487 102.502 182.631 102.389 182.767 102.262C182.875 102.161 182.931 101.933 182.95 101.597C183.007 101.661 183.066 101.731 183.124 101.805C185.241 104.35 189.81 111.31 189.81 112.782Z" fill="#9DC2E7"/>
<path d="M169.724 131.177C169.514 132.278 163.979 135.54 164.483 133.566C164.892 131.966 166.43 129.173 166.997 128.174C166.997 128.177 166.997 128.177 166.997 128.179C167.11 129.295 168.732 129.238 169.121 128.709C169.135 128.691 169.157 128.652 169.187 128.59C169.47 129.441 169.86 130.465 169.724 131.177Z" fill="#262166"/>
<path d="M185.278 130.205C184.856 130.426 179.408 128.222 179.532 127.472C179.659 126.723 181.334 123.695 181.334 123.695C181.318 123.807 181.308 123.891 181.308 123.945C181.308 124.591 183.263 124.826 183.263 124.826C183.263 124.826 183.334 124.715 183.458 124.514C183.701 126.802 185.671 129.998 185.278 130.205Z" fill="#262166"/>
<g opacity="0.25">
<path d="M177.183 107.15C177.183 107.15 171.145 119.616 168.881 128.172L177.183 107.15Z" fill="#0C0C0C"/>
<path d="M177.183 107.15C177.183 107.15 171.145 119.616 168.881 128.172" stroke="#0C0C0C" stroke-width="0.4597" stroke-miterlimit="10"/>
</g>
<g opacity="0.25">
<path d="M178.615 107.15C178.615 107.15 185.324 111.779 185.576 112.528C185.827 113.278 182.096 123.695 182.096 123.695" fill="#0C0C0C"/>
<path d="M178.615 107.15C178.615 107.15 185.324 111.779 185.576 112.528C185.827 113.278 182.096 123.695 182.096 123.695" stroke="#0C0C0C" stroke-width="0.4597" stroke-miterlimit="10"/>
</g>
<path opacity="0.25" d="M172.824 102.643C172.946 102.219 173.056 101.844 173.149 101.525C173.41 101.704 173.721 101.896 174.064 102.087C174.579 102.373 175.188 102.669 175.85 102.934C174.831 102.685 173.733 102.628 172.824 102.643Z" fill="#0C0C0C" stroke="#0C0C0C"/>
<path opacity="0.25" d="M179.06 107.988C178.831 107.825 178.637 107.688 178.49 107.585C178.533 107.461 178.587 107.316 178.649 107.171C178.731 106.978 178.819 106.803 178.905 106.677C178.913 106.665 178.921 106.654 178.928 106.644C178.949 106.657 178.973 106.672 178.998 106.689C179.187 106.811 179.444 107 179.752 107.243C180.366 107.728 181.152 108.4 181.946 109.114C182.739 109.828 183.535 110.577 184.17 111.214C184.488 111.532 184.763 111.819 184.976 112.058C185.177 112.283 185.304 112.443 185.365 112.537C185.366 112.546 185.367 112.558 185.367 112.576C185.368 112.642 185.36 112.742 185.335 112.881C185.287 113.158 185.185 113.529 185.039 113.983C184.749 114.88 184.305 116.029 183.824 117.276L183.813 117.304C183.402 118.369 182.966 119.5 182.585 120.582C182.637 120.379 182.692 120.168 182.748 119.949C183.06 118.745 183.436 117.322 183.856 115.731C184.105 114.787 184.37 113.783 184.646 112.73L184.709 112.491L184.556 112.295C184.318 111.991 183.779 111.528 183.167 111.038C182.536 110.533 181.772 109.958 181.036 109.416C180.299 108.874 179.588 108.363 179.06 107.988Z" fill="#0C0C0C" stroke="#0C0C0C"/>
<path opacity="0.25" d="M178.787 81.9026L178.787 81.9019L178.787 81.9026Z" fill="#0C0C0C" stroke="#0C0C0C"/>
<g opacity="0.25">
<mask id="path-70-inside-3_3913_83162" fill="white">
<path d="M180.168 86.9747C179.201 86.7272 178.666 85.7083 178.465 85.231C178.465 84.9314 178.46 84.6597 178.455 84.4692C178.711 85.0826 179.203 85.9159 180.019 86.1855C180.072 86.2027 180.121 86.2129 180.168 86.215C180.165 86.4754 180.175 86.7374 180.168 86.9747Z"/>
</mask>
<path d="M180.168 86.9747C179.201 86.7272 178.666 85.7083 178.465 85.231C178.465 84.9314 178.46 84.6597 178.455 84.4692C178.711 85.0826 179.203 85.9159 180.019 86.1855C180.072 86.2027 180.121 86.2129 180.168 86.215C180.165 86.4754 180.175 86.7374 180.168 86.9747Z" fill="#0C0C0C"/>
<path d="M180.168 86.9747L179.92 87.9435L181.13 88.253L181.167 87.0049L180.168 86.9747ZM178.465 85.231H177.465V85.4336L177.544 85.6202L178.465 85.231ZM178.455 84.4692L179.378 84.0836L177.455 84.4934L178.455 84.4692ZM180.019 86.1855L179.706 87.135L179.706 87.1351L180.019 86.1855ZM180.168 86.215L181.168 86.2249L181.177 85.2601L180.214 85.2161L180.168 86.215ZM180.416 86.0059C180.214 85.9542 180.008 85.808 179.806 85.5597C179.607 85.3139 179.467 85.0327 179.386 84.8419L177.544 85.6202C177.665 85.9066 177.892 86.3735 178.252 86.8184C178.61 87.2607 179.155 87.7477 179.92 87.9435L180.416 86.0059ZM179.465 85.231C179.465 84.9206 179.46 84.6402 179.455 84.4451L177.455 84.4934C177.46 84.6791 177.465 84.9422 177.465 85.231H179.465ZM177.532 84.8549C177.806 85.5087 178.445 86.7187 179.706 87.135L180.333 85.2359C180.163 85.1797 179.985 85.0504 179.806 84.8285C179.627 84.6068 179.483 84.3363 179.378 84.0836L177.532 84.8549ZM179.706 87.1351C179.822 87.1734 179.963 87.2067 180.122 87.214L180.214 85.2161C180.279 85.2191 180.321 85.2319 180.333 85.2358L179.706 87.1351ZM179.168 86.2052C179.164 86.5553 179.176 86.6963 179.168 86.9445L181.167 87.0049C181.174 86.7785 181.166 86.3956 181.168 86.2249L179.168 86.2052Z" fill="#0C0C0C" mask="url(#path-70-inside-3_3913_83162)"/>
</g>
<g opacity="0.25">
<mask id="path-72-inside-4_3913_83162" fill="white">
<path d="M182.802 91.8778C182.577 93.5521 182.581 95.2441 182.656 96.765C182.275 95.0757 181.942 93.2599 182.331 92.2092C183.004 90.3989 183.077 90.3149 183.087 90.3149C182.967 90.8293 182.872 91.3533 182.802 91.8778Z"/>
</mask>
<path d="M182.802 91.8778C182.577 93.5521 182.581 95.2441 182.656 96.765C182.275 95.0757 181.942 93.2599 182.331 92.2092C183.004 90.3989 183.077 90.3149 183.087 90.3149C182.967 90.8293 182.872 91.3533 182.802 91.8778Z" fill="#0C0C0C"/>
<path d="M182.802 91.8778L183.793 92.0114L183.793 92.0103L182.802 91.8778ZM182.656 96.765L181.681 96.9852L183.655 96.7153L182.656 96.765ZM182.331 92.2092L181.394 91.8611L181.394 91.8613L182.331 92.2092ZM183.087 90.3149L184.061 90.5426L184.348 89.3149H183.087V90.3149ZM181.811 91.7442C181.574 93.5035 181.58 95.2632 181.658 96.8147L183.655 96.7153C183.581 95.225 183.579 93.6007 183.793 92.0114L181.811 91.7442ZM183.632 96.5449C183.443 95.7064 183.275 94.8787 183.199 94.1448C183.121 93.3824 183.157 92.8578 183.269 92.5572L181.394 91.8613C181.116 92.6113 181.124 93.5201 181.21 94.3505C181.299 95.2095 181.489 96.1343 181.681 96.9852L183.632 96.5449ZM183.269 92.5574C183.604 91.655 183.785 91.1971 183.88 90.9695C183.929 90.8517 183.948 90.8152 183.947 90.8164C183.946 90.8185 183.941 90.8274 183.934 90.8407C183.927 90.8526 183.911 90.8784 183.888 90.9106C183.869 90.936 183.818 91.0045 183.734 91.0759C183.67 91.131 183.442 91.3149 183.087 91.3149V89.3149C182.73 89.3149 182.5 89.4996 182.434 89.5567C182.348 89.6303 182.293 89.7024 182.271 89.7335C182.221 89.8012 182.188 89.8649 182.171 89.8963C182.133 89.9698 182.089 90.0674 182.035 90.1969C181.923 90.4638 181.731 90.9531 181.394 91.8611L183.269 92.5574ZM182.113 90.0873C181.985 90.6353 181.885 91.1912 181.811 91.7454L183.793 92.0103C183.86 91.5154 183.948 91.0232 184.061 90.5426L182.113 90.0873Z" fill="#0C0C0C" mask="url(#path-72-inside-4_3913_83162)"/>
</g>
<path d="M135.745 108.744L117.644 105.474L117.616 105.644L77.6418 152.96L76.8164 164.788L82.5498 165.824L92.4733 167.617L105.794 170.024L107.06 170.252L106.107 176.087L105.665 178.786L104.208 187.702L115.99 189.831L122.31 190.972L125.161 173.522L133.112 174.956L135.512 160.272L127.56 158.837L135.745 108.744ZM113.148 132.99L109.457 155.567L105.041 154.768L95.383 153.025L100.731 146.315L101.954 144.779L112.15 131.984L113.592 130.268L113.148 132.99Z" fill="#0077DB"/>
<path opacity="0.25" d="M105.796 170.026L92.4756 167.619C94.0446 162.17 96.0024 154.661 95.3858 153.026L105.044 154.769C105.662 155.854 106.152 157.344 106.284 159.39C106.519 163.012 106.005 166.709 105.796 170.026Z" fill="#0077DB"/>
<path d="M95.9583 153.13C95.9583 153.13 97.4106 151.012 100.681 151.673C103.952 152.335 104.203 156.567 102.778 161.24C101.352 165.912 101.017 182.222 101.687 187.511C102.358 192.801 101.939 195.27 100.346 195.446C98.7528 195.622 97.9975 189.098 98.9202 184.514C99.8428 179.93 99.7589 175.698 98.2493 176.403C96.7397 177.109 97.9975 178.872 97.2427 180.459C96.4879 182.045 94.224 181.076 94.3079 178.078C94.3919 175.08 98.9509 155.6 95.9583 153.13Z" fill="#9DC2E7"/>
<path opacity="0.25" d="M127.559 158.837L135.51 160.271L133.111 174.956L125.159 173.522L122.308 190.972L115.988 189.83L127.095 116.97L135.743 108.743L127.559 158.837Z" fill="#0077DB"/>
<path d="M122.144 0V113.564" stroke="#0A2533" stroke-width="0.9195" stroke-miterlimit="10"/>
<path d="M152.585 90.9226C154.391 90.9226 155.855 89.3832 155.855 87.4842C155.855 85.5853 154.391 84.0459 152.585 84.0459C150.779 84.0459 149.314 85.5853 149.314 87.4842C149.314 89.3832 150.779 90.9226 152.585 90.9226Z" fill="#F47920"/>
<path d="M266.374 134.616C268.18 134.616 269.644 133.077 269.644 131.178C269.644 129.279 268.18 127.74 266.374 127.74C264.568 127.74 263.104 129.279 263.104 131.178C263.104 133.077 264.568 134.616 266.374 134.616Z" fill="#6561AB"/>
<path d="M95.3808 109.514C97.187 109.514 98.6513 107.975 98.6513 106.076C98.6513 104.177 97.187 102.637 95.3808 102.637C93.5746 102.637 92.1104 104.177 92.1104 106.076C92.1104 107.975 93.5746 109.514 95.3808 109.514Z" fill="#9DC2E7"/>
<path d="M149.318 214.661C151.125 214.661 152.589 213.122 152.589 211.223C152.589 209.324 151.125 207.785 149.318 207.785C147.512 207.785 146.048 209.324 146.048 211.223C146.048 213.122 147.512 214.661 149.318 214.661Z" fill="#F26647"/>
<path d="M247.681 99.1611C248.378 99.1611 248.943 98.5674 248.943 97.835C248.943 97.1025 248.378 96.5088 247.681 96.5088C246.985 96.5088 246.42 97.1025 246.42 97.835C246.42 98.5674 246.985 99.1611 247.681 99.1611Z" fill="#F47920"/>
<path d="M151.326 119.81C152.023 119.81 152.587 119.216 152.587 118.483C152.587 117.751 152.023 117.157 151.326 117.157C150.629 117.157 150.064 117.751 150.064 118.483C150.064 119.216 150.629 119.81 151.326 119.81Z" fill="#9DC2E7"/>
<path d="M113.591 101.854C114.288 101.854 114.853 101.261 114.853 100.528C114.853 99.7959 114.288 99.2021 113.591 99.2021C112.895 99.2021 112.33 99.7959 112.33 100.528C112.33 101.261 112.895 101.854 113.591 101.854Z" fill="#6561AB"/>
<path d="M284.237 27.8461C284.237 27.8461 279.196 22.5565 269.642 24.6725C260.087 26.7884 253.371 42.6573 246.415 46.1833C239.458 49.7099 225.743 60.1229 224.718 69.0219C238.116 57.2919 243.148 62.4051 251.869 60.9944C260.59 59.5838 261.26 48.8281 273.839 49.181C286.418 49.5334 299.835 65.965 312.413 56.7797C324.991 47.5945 339.75 36.6623 327.842 27.6702C315.934 18.6781 291.784 32.4304 284.237 27.8461Z" fill="url(#paint14_linear_3913_83162)"/>
<path d="M80.133 63.598C80.133 63.598 78.8209 70.9573 85.871 78.06C92.9206 85.1627 109.173 82.0444 115.866 86.0955C122.559 90.1467 138.473 96.183 146.041 92.0539C129.271 87.036 130.45 79.7843 124.424 73.0076C118.399 66.2315 109.572 71.7143 102.756 60.5949C95.9393 49.475 101.279 28.5603 86.9712 22.8193C72.6627 17.0783 55.7526 10.4292 55.4041 25.8385C55.0556 41.2479 79.4779 54.4601 80.133 63.598Z" fill="url(#paint15_linear_3913_83162)"/>
<path d="M323.651 105.792C323.651 105.792 303.191 129.393 298.83 157.064C294.469 184.736 273.495 182.972 266.373 196.02C259.249 209.068 242.274 210.126 234.494 215.415C226.713 220.705 208.988 211.536 205.943 215.415C202.899 219.294 221.842 225.29 246.416 225.642C270.99 225.995 275.685 205.894 297.488 203.073C319.291 200.252 341.093 190.378 348.808 152.997C356.523 115.618 343.441 95.6132 323.651 105.792Z" fill="url(#paint16_linear_3913_83162)"/>
<path d="M28.3493 115.293C28.3493 115.293 48.8098 138.894 53.1708 166.565C57.5313 194.237 78.5051 192.473 85.6278 205.521C92.7506 218.569 109.726 219.627 117.507 224.917C125.287 230.206 143.013 221.038 146.058 224.917C149.102 228.796 130.158 234.791 105.584 235.143C81.0105 235.496 76.3154 215.395 54.5126 212.574C32.7103 209.753 10.907 199.879 3.19262 162.499C-4.52275 125.119 8.55914 105.114 28.3493 115.293Z" fill="url(#paint17_linear_3913_83162)"/>
<defs>
<linearGradient id="paint0_linear_3913_83162" x1="227.845" y1="144.511" x2="232.292" y2="212.189" gradientUnits="userSpaceOnUse">
<stop stop-color="#FCAF17"/>
<stop offset="1" stop-color="#F47920"/>
</linearGradient>
<linearGradient id="paint1_linear_3913_83162" x1="75.3543" y1="126.189" x2="75.8635" y2="121.61" gradientUnits="userSpaceOnUse">
<stop stop-color="#FBC4AF"/>
<stop offset="1" stop-color="#EA8B69"/>
</linearGradient>
<linearGradient id="paint2_linear_3913_83162" x1="81.167" y1="124.656" x2="77.1397" y2="124.935" gradientUnits="userSpaceOnUse">
<stop stop-color="#FBC4AF"/>
<stop offset="1" stop-color="#EA8B69"/>
</linearGradient>
<linearGradient id="paint3_linear_3913_83162" x1="75.8958" y1="141.929" x2="79.9434" y2="128.104" gradientUnits="userSpaceOnUse">
<stop stop-color="#FBC4AF"/>
<stop offset="1" stop-color="#EA8B69"/>
</linearGradient>
<linearGradient id="paint4_linear_3913_83162" x1="223.109" y1="90.8562" x2="223.294" y2="86.8241" gradientUnits="userSpaceOnUse">
<stop stop-color="#FBC4AF"/>
<stop offset="1" stop-color="#EA8B69"/>
</linearGradient>
<linearGradient id="paint5_linear_3913_83162" x1="223.855" y1="92.5729" x2="223.716" y2="89.7086" gradientUnits="userSpaceOnUse">
<stop stop-color="#FBC4AF"/>
<stop offset="1" stop-color="#EA8B69"/>
</linearGradient>
<linearGradient id="paint6_linear_3913_83162" x1="215.443" y1="114.2" x2="218.772" y2="93.6205" gradientUnits="userSpaceOnUse">
<stop stop-color="#FBC4AF"/>
<stop offset="1" stop-color="#EA8B69"/>
</linearGradient>
<linearGradient id="paint7_linear_3913_83162" x1="232.33" y1="89.3152" x2="234.916" y2="102.286" gradientUnits="userSpaceOnUse">
<stop stop-color="#FBC4AF"/>
<stop offset="1" stop-color="#EA8B69"/>
</linearGradient>
<linearGradient id="paint8_linear_3913_83162" x1="165.732" y1="70.1177" x2="167.325" y2="73.336" gradientUnits="userSpaceOnUse">
<stop stop-color="#FBC4AF"/>
<stop offset="1" stop-color="#EA8B69"/>
</linearGradient>
<linearGradient id="paint9_linear_3913_83162" x1="163.512" y1="70.0366" x2="167.212" y2="71.5132" gradientUnits="userSpaceOnUse">
<stop stop-color="#FBC4AF"/>
<stop offset="1" stop-color="#EA8B69"/>
</linearGradient>
<linearGradient id="paint10_linear_3913_83162" x1="165.602" y1="68.802" x2="168.148" y2="73.9494" gradientUnits="userSpaceOnUse">
<stop stop-color="#FBC4AF"/>
<stop offset="1" stop-color="#EA8B69"/>
</linearGradient>
<linearGradient id="paint11_linear_3913_83162" x1="199.031" y1="73.9953" x2="191.971" y2="81.9776" gradientUnits="userSpaceOnUse">
<stop stop-color="#FBC4AF"/>
<stop offset="1" stop-color="#EA8B69"/>
</linearGradient>
<linearGradient id="paint12_linear_3913_83162" x1="180.394" y1="86.6933" x2="179.607" y2="77.9717" gradientUnits="userSpaceOnUse">
<stop stop-color="#FBC4AF"/>
<stop offset="1" stop-color="#EA8B69"/>
</linearGradient>
<linearGradient id="paint13_linear_3913_83162" x1="179.173" y1="86.76" x2="179.543" y2="84.5176" gradientUnits="userSpaceOnUse">
<stop stop-color="#FBC4AF"/>
<stop offset="1" stop-color="#EA8B69"/>
</linearGradient>
<linearGradient id="paint14_linear_3913_83162" x1="302.534" y1="38.5106" x2="188.946" y2="63.5175" gradientUnits="userSpaceOnUse">
<stop stop-color="white" stop-opacity="0"/>
<stop offset="1" stop-color="#9DC2E7"/>
</linearGradient>
<linearGradient id="paint15_linear_3913_83162" x1="78.1917" y1="41.6974" x2="167.444" y2="119.873" gradientUnits="userSpaceOnUse">
<stop stop-color="white" stop-opacity="0"/>
<stop offset="1" stop-color="#9DC2E7"/>
</linearGradient>
<linearGradient id="paint16_linear_3913_83162" x1="314.294" y1="158.863" x2="151.247" y2="194.758" gradientUnits="userSpaceOnUse">
<stop stop-color="white" stop-opacity="0"/>
<stop offset="1" stop-color="#9DC2E7"/>
</linearGradient>
<linearGradient id="paint17_linear_3913_83162" x1="37.7062" y1="168.363" x2="200.753" y2="204.258" gradientUnits="userSpaceOnUse">
<stop stop-color="white" stop-opacity="0"/>
<stop offset="1" stop-color="#9DC2E7"/>
</linearGradient>
</defs>
</svg>
